solid cylinder
  facet normal 0.9951847266721968 0.09801714032956069 0.0
    outer loop
      vertex 0.05 0.0 -0.5
      vertex 0.049039264020161524 0.009754516100806413 -0.5
      vertex 0.049039264020161524 0.009754516100806413 0.5
    endloop
  endfacet
  facet normal 0.9951847266721968 0.09801714032956069 0.0
    outer loop
      vertex 0.05 0.0 -0.5
      vertex 0.049039264020161524 0.009754516100806413 0.5
      vertex 0.05 0.0 0.5
    endloop
  endfacet
  facet normal 0.9569403357322089 0.29028467725446216 0.0
    outer loop
      vertex 0.049039264020161524 0.009754516100806413 -0.5
      vertex 0.04619397662556434 0.01913417161825449 -0.5
      vertex 0.04619397662556434 0.01913417161825449 0.5
    endloop
  endfacet
  facet normal 0.9569403357322089 0.29028467725446216 0.0
    outer loop
      vertex 0.049039264020161524 0.009754516100806413 -0.5
      vertex 0.04619397662556434 0.01913417161825449 0.5
      vertex 0.049039264020161524 0.009754516100806413 0.5
    endloop
  endfacet
  facet normal 0.8819212643483549 0.4713967368259979 0.0
    outer loop
      vertex 0.04619397662556434 0.01913417161825449 -0.5
      vertex 0.041573480615127265 0.02777851165098011 -0.5
      vertex 0.041573480615127265 0.02777851165098011 0.5
    endloop
  endfacet
  facet normal 0.8819212643483549 0.4713967368259979 0.0
    outer loop
      vertex 0.04619397662556434 0.01913417161825449 -0.5
      vertex 0.041573480615127265 0.02777851165098011 0.5
      vertex 0.04619397662556434 0.01913417161825449 0.5
    endloop
  endfacet
  facet normal 0.7730104533627372 0.6343932841636452 0.0
    outer loop
      vertex 0.041573480615127265 0.02777851165098011 -0.5
      vertex 0.03535533905932738 0.035355339059327376 -0.5
      vertex 0.03535533905932738 0.035355339059327376 0.5
    endloop
  endfacet
  facet normal 0.7730104533627372 0.6343932841636452 0.0
    outer loop
      vertex 0.041573480615127265 0.02777851165098011 -0.5
      vertex 0.03535533905932738 0.035355339059327376 0.5
      vertex 0.041573480615127265 0.02777851165098011 0.5
    endloop
  endfacet
  facet normal 0.6343932841636452 0.7730104533627372 0.0
    outer loop
      vertex 0.03535533905932738 0.035355339059327376 -0.5
      vertex 0.027778511650980116 0.04157348061512726 -0.5
      vertex 0.027778511650980116 0.04157348061512726 0.5
    endloop
  endfacet
  facet normal 0.6343932841636452 0.7730104533627372 0.0
    outer loop
      vertex 0.03535533905932738 0.035355339059327376 -0.5
      vertex 0.027778511650980116 0.04157348061512726 0.5
      vertex 0.03535533905932738 0.035355339059327376 0.5
    endloop
  endfacet
  facet normal 0.4713967368259983 0.8819212643483546 0.0
    outer loop
      vertex 0.027778511650980116 0.04157348061512726 -0.5
      vertex 0.019134171618254495 0.04619397662556434 -0.5
      vertex 0.019134171618254495 0.04619397662556434 0.5
    endloop
  endfacet
  facet normal 0.4713967368259983 0.8819212643483546 0.0
    outer loop
      vertex 0.027778511650980116 0.04157348061512726 -0.5
      vertex 0.019134171618254495 0.04619397662556434 0.5
      vertex 0.027778511650980116 0.04157348061512726 0.5
    endloop
  endfacet
  facet normal 0.29028467725446216 0.9569403357322089 0.0
    outer loop
      vertex 0.019134171618254495 0.04619397662556434 -0.5
      vertex 0.009754516100806417 0.049039264020161524 -0.5
      vertex 0.009754516100806417 0.049039264020161524 0.5
    endloop
  endfacet
  facet normal 0.29028467725446216 0.9569403357322089 0.0
    outer loop
      vertex 0.019134171618254495 0.04619397662556434 -0.5
      vertex 0.009754516100806417 0.049039264020161524 0.5
      vertex 0.019134171618254495 0.04619397662556434 0.5
    endloop
  endfacet
  facet normal 0.09801714032956069 0.9951847266721968 0.0
    outer loop
      vertex 0.009754516100806417 0.049039264020161524 -0.5
      vertex 3.061616997868383e-18 0.05 -0.5
      vertex 3.061616997868383e-18 0.05 0.5
    endloop
  endfacet
  facet normal 0.09801714032956069 0.9951847266721968 0.0
    outer loop
      vertex 0.009754516100806417 0.049039264020161524 -0.5
      vertex 3.061616997868383e-18 0.05 0.5
      vertex 0.009754516100806417 0.049039264020161524 0.5
    endloop
  endfacet
  facet normal -0.09801714032956069 0.9951847266721968 0.0
    outer loop
      vertex 3.061616997868383e-18 0.05 -0.5
      vertex -0.00975451610080641 0.049039264020161524 -0.5
      vertex -0.00975451610080641 0.049039264020161524 0.5
    endloop
  endfacet
  facet normal -0.09801714032956069 0.9951847266721968 0.0
    outer loop
      vertex 3.061616997868383e-18 0.05 -0.5
      vertex -0.00975451610080641 0.049039264020161524 0.5
      vertex 3.061616997868383e-18 0.05 0.5
    endloop
  endfacet
  facet normal -0.29028467725446216 0.9569403357322089 0.0
    outer loop
      vertex -0.00975451610080641 0.049039264020161524 -0.5
      vertex -0.019134171618254488 0.04619397662556434 -0.5
      vertex -0.019134171618254488 0.04619397662556434 0.5
    endloop
  endfacet
  facet normal -0.29028467725446216 0.9569403357322089 0.0
    outer loop
      vertex -0.00975451610080641 0.049039264020161524 -0.5
      vertex -0.019134171618254488 0.04619397662556434 0.5
      vertex -0.00975451610080641 0.049039264020161524 0.5
    endloop
  endfacet
  facet normal -0.4713967368259971 0.8819212643483553 0.0
    outer loop
      vertex -0.019134171618254488 0.04619397662556434 -0.5
      vertex -0.0277785116509801 0.04157348061512728 -0.5
      vertex -0.0277785116509801 0.04157348061512728 0.5
    endloop
  endfacet
  facet normal -0.4713967368259971 0.8819212643483553 0.0
    outer loop
      vertex -0.019134171618254488 0.04619397662556434 -0.5
      vertex -0.0277785116509801 0.04157348061512728 0.5
      vertex -0.019134171618254488 0.04619397662556434 0.5
    endloop
  endfacet
  facet normal -0.6343932841636455 0.7730104533627369 0.0
    outer loop
      vertex -0.0277785116509801 0.04157348061512728 -0.5
      vertex -0.035355339059327376 0.03535533905932738 -0.5
      vertex -0.035355339059327376 0.03535533905932738 0.5
    endloop
  endfacet
  facet normal -0.6343932841636455 0.7730104533627369 0.0
    outer loop
      vertex -0.0277785116509801 0.04157348061512728 -0.5
      vertex -0.035355339059327376 0.03535533905932738 0.5
      vertex -0.0277785116509801 0.04157348061512728 0.5
    endloop
  endfacet
  facet normal -0.7730104533627369 0.6343932841636457 0.0
    outer loop
      vertex -0.035355339059327376 0.03535533905932738 -0.5
      vertex -0.04157348061512727 0.02777851165098011 -0.5
      vertex -0.04157348061512727 0.02777851165098011 0.5
    endloop
  endfacet
  facet normal -0.7730104533627369 0.6343932841636457 0.0
    outer loop
      vertex -0.035355339059327376 0.03535533905932738 -0.5
      vertex -0.04157348061512727 0.02777851165098011 0.5
      vertex -0.035355339059327376 0.03535533905932738 0.5
    endloop
  endfacet
  facet normal -0.881921264348355 0.4713967368259975 0.0
    outer loop
      vertex -0.04157348061512727 0.02777851165098011 -0.5
      vertex -0.04619397662556434 0.019134171618254495 -0.5
      vertex -0.04619397662556434 0.019134171618254495 0.5
    endloop
  endfacet
  facet normal -0.881921264348355 0.4713967368259975 0.0
    outer loop
      vertex -0.04157348061512727 0.02777851165098011 -0.5
      vertex -0.04619397662556434 0.019134171618254495 0.5
      vertex -0.04157348061512727 0.02777851165098011 0.5
    endloop
  endfacet
  facet normal -0.9569403357322088 0.29028467725446255 0.0
    outer loop
      vertex -0.04619397662556434 0.019134171618254495 -0.5
      vertex -0.049039264020161524 0.00975451610080643 -0.5
      vertex -0.049039264020161524 0.00975451610080643 0.5
    endloop
  endfacet
  facet normal -0.9569403357322088 0.29028467725446255 0.0
    outer loop
      vertex -0.04619397662556434 0.019134171618254495 -0.5
      vertex -0.049039264020161524 0.00975451610080643 0.5
      vertex -0.04619397662556434 0.019134171618254495 0.5
    endloop
  endfacet
  facet normal -0.9951847266721968 0.09801714032956059 0.0
    outer loop
      vertex -0.049039264020161524 0.00975451610080643 -0.5
      vertex -0.05 6.123233995736766e-18 -0.5
      vertex -0.05 6.123233995736766e-18 0.5
    endloop
  endfacet
  facet normal -0.9951847266721968 0.09801714032956059 0.0
    outer loop
      vertex -0.049039264020161524 0.00975451610080643 -0.5
      vertex -0.05 6.123233995736766e-18 0.5
      vertex -0.049039264020161524 0.00975451610080643 0.5
    endloop
  endfacet
  facet normal -0.9951847266721969 -0.09801714032956059 0.0
    outer loop
      vertex -0.05 6.123233995736766e-18 -0.5
      vertex -0.049039264020161524 -0.009754516100806418 -0.5
      vertex -0.049039264020161524 -0.009754516100806418 0.5
    endloop
  endfacet
  facet normal -0.9951847266721969 -0.09801714032956059 0.0
    outer loop
      vertex -0.05 6.123233995736766e-18 -0.5
      vertex -0.049039264020161524 -0.009754516100806418 0.5
      vertex -0.05 6.123233995736766e-18 0.5
    endloop
  endfacet
  facet normal -0.9569403357322088 -0.2902846772544625 0.0
    outer loop
      vertex -0.049039264020161524 -0.009754516100806418 -0.5
      vertex -0.04619397662556434 -0.019134171618254484 -0.5
      vertex -0.04619397662556434 -0.019134171618254484 0.5
    endloop
  endfacet
  facet normal -0.9569403357322088 -0.2902846772544625 0.0
    outer loop
      vertex -0.049039264020161524 -0.009754516100806418 -0.5
      vertex -0.04619397662556434 -0.019134171618254484 0.5
      vertex -0.049039264020161524 -0.009754516100806418 0.5
    endloop
  endfacet
  facet normal -0.8819212643483554 -0.4713967368259969 0.0
    outer loop
      vertex -0.04619397662556434 -0.019134171618254484 -0.5
      vertex -0.04157348061512728 -0.0277785116509801 -0.5
      vertex -0.04157348061512728 -0.0277785116509801 0.5
    endloop
  endfacet
  facet normal -0.8819212643483554 -0.4713967368259969 0.0
    outer loop
      vertex -0.04619397662556434 -0.019134171618254484 -0.5
      vertex -0.04157348061512728 -0.0277785116509801 0.5
      vertex -0.04619397662556434 -0.019134171618254484 0.5
    endloop
  endfacet
  facet normal -0.7730104533627369 -0.6343932841636455 0.0
    outer loop
      vertex -0.04157348061512728 -0.0277785116509801 -0.5
      vertex -0.03535533905932738 -0.035355339059327376 -0.5
      vertex -0.03535533905932738 -0.035355339059327376 0.5
    endloop
  endfacet
  facet normal -0.7730104533627369 -0.6343932841636455 0.0
    outer loop
      vertex -0.04157348061512728 -0.0277785116509801 -0.5
      vertex -0.03535533905932738 -0.035355339059327376 0.5
      vertex -0.04157348061512728 -0.0277785116509801 0.5
    endloop
  endfacet
  facet normal -0.6343932841636453 -0.7730104533627372 0.0
    outer loop
      vertex -0.03535533905932738 -0.035355339059327376 -0.5
      vertex -0.02777851165098011 -0.041573480615127265 -0.5
      vertex -0.02777851165098011 -0.041573480615127265 0.5
    endloop
  endfacet
  facet normal -0.6343932841636453 -0.7730104533627372 0.0
    outer loop
      vertex -0.03535533905932738 -0.035355339059327376 -0.5
      vertex -0.02777851165098011 -0.041573480615127265 0.5
      vertex -0.03535533905932738 -0.035355339059327376 0.5
    endloop
  endfacet
  facet normal -0.471396736825998 -0.8819212643483549 0.0
    outer loop
      vertex -0.02777851165098011 -0.041573480615127265 -0.5
      vertex -0.01913417161825452 -0.04619397662556433 -0.5
      vertex -0.01913417161825452 -0.04619397662556433 0.5
    endloop
  endfacet
  facet normal -0.471396736825998 -0.8819212643483549 0.0
    outer loop
      vertex -0.02777851165098011 -0.041573480615127265 -0.5
      vertex -0.01913417161825452 -0.04619397662556433 0.5
      vertex -0.02777851165098011 -0.041573480615127265 0.5
    endloop
  endfacet
  facet normal -0.2902846772544626 -0.9569403357322087 0.0
    outer loop
      vertex -0.01913417161825452 -0.04619397662556433 -0.5
      vertex -0.009754516100806434 -0.04903926402016152 -0.5
      vertex -0.009754516100806434 -0.04903926402016152 0.5
    endloop
  endfacet
  facet normal -0.2902846772544626 -0.9569403357322087 0.0
    outer loop
      vertex -0.01913417161825452 -0.04619397662556433 -0.5
      vertex -0.009754516100806434 -0.04903926402016152 0.5
      vertex -0.01913417161825452 -0.04619397662556433 0.5
    endloop
  endfacet
  facet normal -0.09801714032956127 -0.9951847266721968 0.0
    outer loop
      vertex -0.009754516100806434 -0.04903926402016152 -0.5
      vertex -9.184850993605149e-18 -0.05 -0.5
      vertex -9.184850993605149e-18 -0.05 0.5
    endloop
  endfacet
  facet normal -0.09801714032956127 -0.9951847266721968 0.0
    outer loop
      vertex -0.009754516100806434 -0.04903926402016152 -0.5
      vertex -9.184850993605149e-18 -0.05 0.5
      vertex -0.009754516100806434 -0.04903926402016152 0.5
    endloop
  endfacet
  facet normal 0.09801714032956059 -0.9951847266721968 0.0
    outer loop
      vertex -9.184850993605149e-18 -0.05 -0.5
      vertex 0.009754516100806415 -0.049039264020161524 -0.5
      vertex 0.009754516100806415 -0.049039264020161524 0.5
    endloop
  endfacet
  facet normal 0.09801714032956059 -0.9951847266721968 0.0
    outer loop
      vertex -9.184850993605149e-18 -0.05 -0.5
      vertex 0.009754516100806415 -0.049039264020161524 0.5
      vertex -9.184850993605149e-18 -0.05 0.5
    endloop
  endfacet
  facet normal 0.29028467725446255 -0.9569403357322088 0.0
    outer loop
      vertex 0.009754516100806415 -0.049039264020161524 -0.5
      vertex 0.0191341716182545 -0.046193976625564334 -0.5
      vertex 0.0191341716182545 -0.046193976625564334 0.5
    endloop
  endfacet
  facet normal 0.29028467725446255 -0.9569403357322088 0.0
    outer loop
      vertex 0.009754516100806415 -0.049039264020161524 -0.5
      vertex 0.0191341716182545 -0.046193976625564334 0.5
      vertex 0.009754516100806415 -0.049039264020161524 0.5
    endloop
  endfacet
  facet normal 0.4713967368259973 -0.8819212643483553 0.0
    outer loop
      vertex 0.0191341716182545 -0.046193976625564334 -0.5
      vertex 0.027778511650980095 -0.04157348061512728 -0.5
      vertex 0.027778511650980095 -0.04157348061512728 0.5
    endloop
  endfacet
  facet normal 0.4713967368259973 -0.8819212643483553 0.0
    outer loop
      vertex 0.0191341716182545 -0.046193976625564334 -0.5
      vertex 0.027778511650980095 -0.04157348061512728 0.5
      vertex 0.0191341716182545 -0.046193976625564334 0.5
    endloop
  endfacet
  facet normal 0.6343932841636454 -0.7730104533627371 0.0
    outer loop
      vertex 0.027778511650980095 -0.04157348061512728 -0.5
      vertex 0.035355339059327376 -0.03535533905932738 -0.5
      vertex 0.035355339059327376 -0.03535533905932738 0.5
    endloop
  endfacet
  facet normal 0.6343932841636454 -0.7730104533627371 0.0
    outer loop
      vertex 0.027778511650980095 -0.04157348061512728 -0.5
      vertex 0.035355339059327376 -0.03535533905932738 0.5
      vertex 0.027778511650980095 -0.04157348061512728 0.5
    endloop
  endfacet
  facet normal 0.7730104533627372 -0.6343932841636453 0.0
    outer loop
      vertex 0.035355339059327376 -0.03535533905932738 -0.5
      vertex 0.041573480615127265 -0.02777851165098011 -0.5
      vertex 0.041573480615127265 -0.02777851165098011 0.5
    endloop
  endfacet
  facet normal 0.7730104533627372 -0.6343932841636453 0.0
    outer loop
      vertex 0.035355339059327376 -0.03535533905932738 -0.5
      vertex 0.041573480615127265 -0.02777851165098011 0.5
      vertex 0.035355339059327376 -0.03535533905932738 0.5
    endloop
  endfacet
  facet normal 0.8819212643483547 -0.4713967368259981 0.0
    outer loop
      vertex 0.041573480615127265 -0.02777851165098011 -0.5
      vertex 0.04619397662556433 -0.019134171618254522 -0.5
      vertex 0.04619397662556433 -0.019134171618254522 0.5
    endloop
  endfacet
  facet normal 0.8819212643483547 -0.4713967368259981 0.0
    outer loop
      vertex 0.041573480615127265 -0.02777851165098011 -0.5
      vertex 0.04619397662556433 -0.019134171618254522 0.5
      vertex 0.041573480615127265 -0.02777851165098011 0.5
    endloop
  endfacet
  facet normal 0.9569403357322087 -0.2902846772544626 0.0
    outer loop
      vertex 0.04619397662556433 -0.019134171618254522 -0.5
      vertex 0.04903926402016152 -0.009754516100806437 -0.5
      vertex 0.04903926402016152 -0.009754516100806437 0.5
    endloop
  endfacet
  facet normal 0.9569403357322087 -0.2902846772544626 0.0
    outer loop
      vertex 0.04619397662556433 -0.019134171618254522 -0.5
      vertex 0.04903926402016152 -0.009754516100806437 0.5
      vertex 0.04619397662556433 -0.019134171618254522 0.5
    endloop
  endfacet
  facet normal 0.9951847266721968 -0.09801714032956127 0.0
    outer loop
      vertex 0.04903926402016152 -0.009754516100806437 -0.5
      vertex 0.05 -1.2246467991473533e-17 -0.5
      vertex 0.05 -1.2246467991473533e-17 0.5
    endloop
  endfacet
  facet normal 0.9951847266721968 -0.09801714032956127 0.0
    outer loop
      vertex 0.04903926402016152 -0.009754516100806437 -0.5
      vertex 0.05 -1.2246467991473533e-17 0.5
      vertex 0.04903926402016152 -0.009754516100806437 0.5
    endloop
  endfacet
  facet normal 0 0 -1
    outer loop
      vertex 0 0 -0.5
      vertex 0.049039264020161524 0.009754516100806413 -0.5
      vertex 0.05 0.0 -0.5
    endloop
  endfacet
  facet normal 0 0 -1
    outer loop
      vertex 0 0 -0.5
      vertex 0.04619397662556434 0.01913417161825449 -0.5
      vertex 0.049039264020161524 0.009754516100806413 -0.5
    endloop
  endfacet
  facet normal 0 0 -1
    outer loop
      vertex 0 0 -0.5
      vertex 0.041573480615127265 0.02777851165098011 -0.5
      vertex 0.04619397662556434 0.01913417161825449 -0.5
    endloop
  endfacet
  facet normal 0 0 -1
    outer loop
      vertex 0 0 -0.5
      vertex 0.03535533905932738 0.035355339059327376 -0.5
      vertex 0.041573480615127265 0.02777851165098011 -0.5
    endloop
  endfacet
  facet normal 0 0 -1
    outer loop
      vertex 0 0 -0.5
      vertex 0.027778511650980116 0.04157348061512726 -0.5
      vertex 0.03535533905932738 0.035355339059327376 -0.5
    endloop
  endfacet
  facet normal 0 0 -1
    outer loop
      vertex 0 0 -0.5
      vertex 0.019134171618254495 0.04619397662556434 -0.5
      vertex 0.027778511650980116 0.04157348061512726 -0.5
    endloop
  endfacet
  facet normal 0 0 -1
    outer loop
      vertex 0 0 -0.5
      vertex 0.009754516100806417 0.049039264020161524 -0.5
      vertex 0.019134171618254495 0.04619397662556434 -0.5
    endloop
  endfacet
  facet normal 0 0 -1
    outer loop
      vertex 0 0 -0.5
      vertex 3.061616997868383e-18 0.05 -0.5
      vertex 0.009754516100806417 0.049039264020161524 -0.5
    endloop
  endfacet
  facet normal 0 0 -1
    outer loop
      vertex 0 0 -0.5
      vertex -0.00975451610080641 0.049039264020161524 -0.5
      vertex 3.061616997868383e-18 0.05 -0.5
    endloop
  endfacet
  facet normal 0 0 -1
    outer loop
      vertex 0 0 -0.5
      vertex -0.019134171618254488 0.04619397662556434 -0.5
      vertex -0.00975451610080641 0.049039264020161524 -0.5
    endloop
  endfacet
  facet normal 0 0 -1
    outer loop
      vertex 0 0 -0.5
      vertex -0.0277785116509801 0.04157348061512728 -0.5
      vertex -0.019134171618254488 0.04619397662556434 -0.5
    endloop
  endfacet
  facet normal 0 0 -1
    outer loop
      vertex 0 0 -0.5
      vertex -0.035355339059327376 0.03535533905932738 -0.5
      vertex -0.0277785116509801 0.04157348061512728 -0.5
    endloop
  endfacet
  facet normal 0 0 -1
    outer loop
      vertex 0 0 -0.5
      vertex -0.04157348061512727 0.02777851165098011 -0.5
      vertex -0.035355339059327376 0.03535533905932738 -0.5
    endloop
  endfacet
  facet normal 0 0 -1
    outer loop
      vertex 0 0 -0.5
      vertex -0.04619397662556434 0.019134171618254495 -0.5
      vertex -0.04157348061512727 0.02777851165098011 -0.5
    endloop
  endfacet
  facet normal 0 0 -1
    outer loop
      vertex 0 0 -0.5
      vertex -0.049039264020161524 0.00975451610080643 -0.5
      vertex -0.04619397662556434 0.019134171618254495 -0.5
    endloop
  endfacet
  facet normal 0 0 -1
    outer loop
      vertex 0 0 -0.5
      vertex -0.05 6.123233995736766e-18 -0.5
      vertex -0.049039264020161524 0.00975451610080643 -0.5
    endloop
  endfacet
  facet normal 0 0 -1
    outer loop
      vertex 0 0 -0.5
      vertex -0.049039264020161524 -0.009754516100806418 -0.5
      vertex -0.05 6.123233995736766e-18 -0.5
    endloop
  endfacet
  facet normal 0 0 -1
    outer loop
      vertex 0 0 -0.5
      vertex -0.04619397662556434 -0.019134171618254484 -0.5
      vertex -0.049039264020161524 -0.009754516100806418 -0.5
    endloop
  endfacet
  facet normal 0 0 -1
    outer loop
      vertex 0 0 -0.5
      vertex -0.04157348061512728 -0.0277785116509801 -0.5
      vertex -0.04619397662556434 -0.019134171618254484 -0.5
    endloop
  endfacet
  facet normal 0 0 -1
    outer loop
      vertex 0 0 -0.5
      vertex -0.03535533905932738 -0.035355339059327376 -0.5
      vertex -0.04157348061512728 -0.0277785116509801 -0.5
    endloop
  endfacet
  facet normal 0 0 -1
    outer loop
      vertex 0 0 -0.5
      vertex -0.02777851165098011 -0.041573480615127265 -0.5
      vertex -0.03535533905932738 -0.035355339059327376 -0.5
    endloop
  endfacet
  facet normal 0 0 -1
    outer loop
      vertex 0 0 -0.5
      vertex -0.01913417161825452 -0.04619397662556433 -0.5
      vertex -0.02777851165098011 -0.041573480615127265 -0.5
    endloop
  endfacet
  facet normal 0 0 -1
    outer loop
      vertex 0 0 -0.5
      vertex -0.009754516100806434 -0.04903926402016152 -0.5
      vertex -0.01913417161825452 -0.04619397662556433 -0.5
    endloop
  endfacet
  facet normal 0 0 -1
    outer loop
      vertex 0 0 -0.5
      vertex -9.184850993605149e-18 -0.05 -0.5
      vertex -0.009754516100806434 -0.04903926402016152 -0.5
    endloop
  endfacet
  facet normal 0 0 -1
    outer loop
      vertex 0 0 -0.5
      vertex 0.009754516100806415 -0.049039264020161524 -0.5
      vertex -9.184850993605149e-18 -0.05 -0.5
    endloop
  endfacet
  facet normal 0 0 -1
    outer loop
      vertex 0 0 -0.5
      vertex 0.0191341716182545 -0.046193976625564334 -0.5
      vertex 0.009754516100806415 -0.049039264020161524 -0.5
    endloop
  endfacet
  facet normal 0 0 -1
    outer loop
      vertex 0 0 -0.5
      vertex 0.027778511650980095 -0.04157348061512728 -0.5
      vertex 0.0191341716182545 -0.046193976625564334 -0.5
    endloop
  endfacet
  facet normal 0 0 -1
    outer loop
      vertex 0 0 -0.5
      vertex 0.035355339059327376 -0.03535533905932738 -0.5
      vertex 0.027778511650980095 -0.04157348061512728 -0.5
    endloop
  endfacet
  facet normal 0 0 -1
    outer loop
      vertex 0 0 -0.5
      vertex 0.041573480615127265 -0.02777851165098011 -0.5
      vertex 0.035355339059327376 -0.03535533905932738 -0.5
    endloop
  endfacet
  facet normal 0 0 -1
    outer loop
      vertex 0 0 -0.5
      vertex 0.04619397662556433 -0.019134171618254522 -0.5
      vertex 0.041573480615127265 -0.02777851165098011 -0.5
    endloop
  endfacet
  facet normal 0 0 -1
    outer loop
      vertex 0 0 -0.5
      vertex 0.04903926402016152 -0.009754516100806437 -0.5
      vertex 0.04619397662556433 -0.019134171618254522 -0.5
    endloop
  endfacet
  facet normal 0 0 -1
    outer loop
      vertex 0 0 -0.5
      vertex 0.05 -1.2246467991473533e-17 -0.5
      vertex 0.04903926402016152 -0.009754516100806437 -0.5
    endloop
  endfacet
  facet normal 0 0 1
    outer loop
      vertex 0 0 0.5
      vertex 0.05 0.0 0.5
      vertex 0.049039264020161524 0.009754516100806413 0.5
    endloop
  endfacet
  facet normal 0 0 1
    outer loop
      vertex 0 0 0.5
      vertex 0.049039264020161524 0.009754516100806413 0.5
      vertex 0.04619397662556434 0.01913417161825449 0.5
    endloop
  endfacet
  facet normal 0 0 1
    outer loop
      vertex 0 0 0.5
      vertex 0.04619397662556434 0.01913417161825449 0.5
      vertex 0.041573480615127265 0.02777851165098011 0.5
    endloop
  endfacet
  facet normal 0 0 1
    outer loop
      vertex 0 0 0.5
      vertex 0.041573480615127265 0.02777851165098011 0.5
      vertex 0.03535533905932738 0.035355339059327376 0.5
    endloop
  endfacet
  facet normal 0 0 1
    outer loop
      vertex 0 0 0.5
      vertex 0.03535533905932738 0.035355339059327376 0.5
      vertex 0.027778511650980116 0.04157348061512726 0.5
    endloop
  endfacet
  facet normal 0 0 1
    outer loop
      vertex 0 0 0.5
      vertex 0.027778511650980116 0.04157348061512726 0.5
      vertex 0.019134171618254495 0.04619397662556434 0.5
    endloop
  endfacet
  facet normal 0 0 1
    outer loop
      vertex 0 0 0.5
      vertex 0.019134171618254495 0.04619397662556434 0.5
      vertex 0.009754516100806417 0.049039264020161524 0.5
    endloop
  endfacet
  facet normal 0 0 1
    outer loop
      vertex 0 0 0.5
      vertex 0.009754516100806417 0.049039264020161524 0.5
      vertex 3.061616997868383e-18 0.05 0.5
    endloop
  endfacet
  facet normal 0 0 1
    outer loop
      vertex 0 0 0.5
      vertex 3.061616997868383e-18 0.05 0.5
      vertex -0.00975451610080641 0.049039264020161524 0.5
    endloop
  endfacet
  facet normal 0 0 1
    outer loop
      vertex 0 0 0.5
      vertex -0.00975451610080641 0.049039264020161524 0.5
      vertex -0.019134171618254488 0.04619397662556434 0.5
    endloop
  endfacet
  facet normal 0 0 1
    outer loop
      vertex 0 0 0.5
      vertex -0.019134171618254488 0.04619397662556434 0.5
      vertex -0.0277785116509801 0.04157348061512728 0.5
    endloop
  endfacet
  facet normal 0 0 1
    outer loop
      vertex 0 0 0.5
      vertex -0.0277785116509801 0.04157348061512728 0.5
      vertex -0.035355339059327376 0.03535533905932738 0.5
    endloop
  endfacet
  facet normal 0 0 1
    outer loop
      vertex 0 0 0.5
      vertex -0.035355339059327376 0.03535533905932738 0.5
      vertex -0.04157348061512727 0.02777851165098011 0.5
    endloop
  endfacet
  facet normal 0 0 1
    outer loop
      vertex 0 0 0.5
      vertex -0.04157348061512727 0.02777851165098011 0.5
      vertex -0.04619397662556434 0.019134171618254495 0.5
    endloop
  endfacet
  facet normal 0 0 1
    outer loop
      vertex 0 0 0.5
      vertex -0.04619397662556434 0.019134171618254495 0.5
      vertex -0.049039264020161524 0.00975451610080643 0.5
    endloop
  endfacet
  facet normal 0 0 1
    outer loop
      vertex 0 0 0.5
      vertex -0.049039264020161524 0.00975451610080643 0.5
      vertex -0.05 6.123233995736766e-18 0.5
    endloop
  endfacet
  facet normal 0 0 1
    outer loop
      vertex 0 0 0.5
      vertex -0.05 6.123233995736766e-18 0.5
      vertex -0.049039264020161524 -0.009754516100806418 0.5
    endloop
  endfacet
  facet normal 0 0 1
    outer loop
      vertex 0 0 0.5
      vertex -0.049039264020161524 -0.009754516100806418 0.5
      vertex -0.04619397662556434 -0.019134171618254484 0.5
    endloop
  endfacet
  facet normal 0 0 1
    outer loop
      vertex 0 0 0.5
      vertex -0.04619397662556434 -0.019134171618254484 0.5
      vertex -0.04157348061512728 -0.0277785116509801 0.5
    endloop
  endfacet
  facet normal 0 0 1
    outer loop
      vertex 0 0 0.5
      vertex -0.04157348061512728 -0.0277785116509801 0.5
      vertex -0.03535533905932738 -0.035355339059327376 0.5
    endloop
  endfacet
  facet normal 0 0 1
    outer loop
      vertex 0 0 0.5
      vertex -0.03535533905932738 -0.035355339059327376 0.5
      vertex -0.02777851165098011 -0.041573480615127265 0.5
    endloop
  endfacet
  facet normal 0 0 1
    outer loop
      vertex 0 0 0.5
      vertex -0.02777851165098011 -0.041573480615127265 0.5
      vertex -0.01913417161825452 -0.04619397662556433 0.5
    endloop
  endfacet
  facet normal 0 0 1
    outer loop
      vertex 0 0 0.5
      vertex -0.01913417161825452 -0.04619397662556433 0.5
      vertex -0.009754516100806434 -0.04903926402016152 0.5
    endloop
  endfacet
  facet normal 0 0 1
    outer loop
      vertex 0 0 0.5
      vertex -0.009754516100806434 -0.04903926402016152 0.5
      vertex -9.184850993605149e-18 -0.05 0.5
    endloop
  endfacet
  facet normal 0 0 1
    outer loop
      vertex 0 0 0.5
      vertex -9.184850993605149e-18 -0.05 0.5
      vertex 0.009754516100806415 -0.049039264020161524 0.5
    endloop
  endfacet
  facet normal 0 0 1
    outer loop
      vertex 0 0 0.5
      vertex 0.009754516100806415 -0.049039264020161524 0.5
      vertex 0.0191341716182545 -0.046193976625564334 0.5
    endloop
  endfacet
  facet normal 0 0 1
    outer loop
      vertex 0 0 0.5
      vertex 0.0191341716182545 -0.046193976625564334 0.5
      vertex 0.027778511650980095 -0.04157348061512728 0.5
    endloop
  endfacet
  facet normal 0 0 1
    outer loop
      vertex 0 0 0.5
      vertex 0.027778511650980095 -0.04157348061512728 0.5
      vertex 0.035355339059327376 -0.03535533905932738 0.5
    endloop
  endfacet
  facet normal 0 0 1
    outer loop
      vertex 0 0 0.5
      vertex 0.035355339059327376 -0.03535533905932738 0.5
      vertex 0.041573480615127265 -0.02777851165098011 0.5
    endloop
  endfacet
  facet normal 0 0 1
    outer loop
      vertex 0 0 0.5
      vertex 0.041573480615127265 -0.02777851165098011 0.5
      vertex 0.04619397662556433 -0.019134171618254522 0.5
    endloop
  endfacet
  facet normal 0 0 1
    outer loop
      vertex 0 0 0.5
      vertex 0.04619397662556433 -0.019134171618254522 0.5
      vertex 0.04903926402016152 -0.009754516100806437 0.5
    endloop
  endfacet
  facet normal 0 0 1
    outer loop
      vertex 0 0 0.5
      vertex 0.04903926402016152 -0.009754516100806437 0.5
      vertex 0.05 -1.2246467991473533e-17 0.5
    endloop
  endfacet
endsolid cylinder
