solid cylinder
  facet normal 0.9987954562051722 0.04906767432741814 0.0
    outer loop
      vertex 0.001 0.0 -0.005
      vertex 0.000995184726672197 9.80171403295606e-05 -0.005
      vertex 0.000995184726672197 9.80171403295606e-05 0.005
    endloop
  endfacet
  facet normal 0.9987954562051722 0.04906767432741814 0.0
    outer loop
      vertex 0.001 0.0 -0.005
      vertex 0.000995184726672197 9.80171403295606e-05 0.005
      vertex 0.001 0.0 0.005
    endloop
  endfacet
  facet normal 0.9891765099647809 0.1467304744553619 0.0
    outer loop
      vertex 0.000995184726672197 9.80171403295606e-05 -0.005
      vertex 0.0009807852804032304 0.00019509032201612826 -0.005
      vertex 0.0009807852804032304 0.00019509032201612826 0.005
    endloop
  endfacet
  facet normal 0.9891765099647809 0.1467304744553619 0.0
    outer loop
      vertex 0.000995184726672197 9.80171403295606e-05 -0.005
      vertex 0.0009807852804032304 0.00019509032201612826 0.005
      vertex 0.000995184726672197 9.80171403295606e-05 0.005
    endloop
  endfacet
  facet normal 0.970031253194544 0.24298017990326418 0.0
    outer loop
      vertex 0.0009807852804032304 0.00019509032201612826 -0.005
      vertex 0.0009569403357322088 0.00029028467725446234 -0.005
      vertex 0.0009569403357322088 0.00029028467725446234 0.005
    endloop
  endfacet
  facet normal 0.970031253194544 0.24298017990326418 0.0
    outer loop
      vertex 0.0009807852804032304 0.00019509032201612826 -0.005
      vertex 0.0009569403357322088 0.00029028467725446234 0.005
      vertex 0.0009807852804032304 0.00019509032201612826 0.005
    endloop
  endfacet
  facet normal 0.941544065183021 0.33688985339221966 0.0
    outer loop
      vertex 0.0009569403357322088 0.00029028467725446234 -0.005
      vertex 0.0009238795325112868 0.0003826834323650898 -0.005
      vertex 0.0009238795325112868 0.0003826834323650898 0.005
    endloop
  endfacet
  facet normal 0.941544065183021 0.33688985339221966 0.0
    outer loop
      vertex 0.0009569403357322088 0.00029028467725446234 -0.005
      vertex 0.0009238795325112868 0.0003826834323650898 0.005
      vertex 0.0009569403357322088 0.00029028467725446234 0.005
    endloop
  endfacet
  facet normal 0.9039892931234436 0.4275550934302818 0.0
    outer loop
      vertex 0.0009238795325112868 0.0003826834323650898 -0.005
      vertex 0.0008819212643483551 0.00047139673682599763 -0.005
      vertex 0.0008819212643483551 0.00047139673682599763 0.005
    endloop
  endfacet
  facet normal 0.9039892931234436 0.4275550934302818 0.0
    outer loop
      vertex 0.0009238795325112868 0.0003826834323650898 -0.005
      vertex 0.0008819212643483551 0.00047139673682599763 0.005
      vertex 0.0009238795325112868 0.0003826834323650898 0.005
    endloop
  endfacet
  facet normal 0.857728610000272 0.5141027441932216 0.0
    outer loop
      vertex 0.0008819212643483551 0.00047139673682599763 -0.005
      vertex 0.0008314696123025453 0.0005555702330196022 -0.005
      vertex 0.0008314696123025453 0.0005555702330196022 0.005
    endloop
  endfacet
  facet normal 0.857728610000272 0.5141027441932216 0.0
    outer loop
      vertex 0.0008819212643483551 0.00047139673682599763 -0.005
      vertex 0.0008314696123025453 0.0005555702330196022 0.005
      vertex 0.0008819212643483551 0.00047139673682599763 0.005
    endloop
  endfacet
  facet normal 0.8032075314806448 0.5956993044924335 0.0
    outer loop
      vertex 0.0008314696123025453 0.0005555702330196022 -0.005
      vertex 0.000773010453362737 0.0006343932841636455 -0.005
      vertex 0.000773010453362737 0.0006343932841636455 0.005
    endloop
  endfacet
  facet normal 0.8032075314806448 0.5956993044924335 0.0
    outer loop
      vertex 0.0008314696123025453 0.0005555702330196022 -0.005
      vertex 0.000773010453362737 0.0006343932841636455 0.005
      vertex 0.0008314696123025453 0.0005555702330196022 0.005
    endloop
  endfacet
  facet normal 0.7409511253549593 0.6715589548470182 0.0
    outer loop
      vertex 0.000773010453362737 0.0006343932841636455 -0.005
      vertex 0.0007071067811865476 0.0007071067811865475 -0.005
      vertex 0.0007071067811865476 0.0007071067811865475 0.005
    endloop
  endfacet
  facet normal 0.7409511253549593 0.6715589548470182 0.0
    outer loop
      vertex 0.000773010453362737 0.0006343932841636455 -0.005
      vertex 0.0007071067811865476 0.0007071067811865475 0.005
      vertex 0.000773010453362737 0.0006343932841636455 0.005
    endloop
  endfacet
  facet normal 0.6715589548470182 0.7409511253549593 0.0
    outer loop
      vertex 0.0007071067811865476 0.0007071067811865475 -0.005
      vertex 0.0006343932841636457 0.0007730104533627369 -0.005
      vertex 0.0006343932841636457 0.0007730104533627369 0.005
    endloop
  endfacet
  facet normal 0.6715589548470182 0.7409511253549593 0.0
    outer loop
      vertex 0.0007071067811865476 0.0007071067811865475 -0.005
      vertex 0.0006343932841636457 0.0007730104533627369 0.005
      vertex 0.0007071067811865476 0.0007071067811865475 0.005
    endloop
  endfacet
  facet normal 0.5956993044924335 0.8032075314806448 0.0
    outer loop
      vertex 0.0006343932841636457 0.0007730104533627369 -0.005
      vertex 0.0005555702330196023 0.0008314696123025452 -0.005
      vertex 0.0005555702330196023 0.0008314696123025452 0.005
    endloop
  endfacet
  facet normal 0.5956993044924335 0.8032075314806448 0.0
    outer loop
      vertex 0.0006343932841636457 0.0007730104533627369 -0.005
      vertex 0.0005555702330196023 0.0008314696123025452 0.005
      vertex 0.0006343932841636457 0.0007730104533627369 0.005
    endloop
  endfacet
  facet normal 0.5141027441932218 0.8577286100002719 0.0
    outer loop
      vertex 0.0005555702330196023 0.0008314696123025452 -0.005
      vertex 0.0004713967368259978 0.000881921264348355 -0.005
      vertex 0.0004713967368259978 0.000881921264348355 0.005
    endloop
  endfacet
  facet normal 0.5141027441932218 0.8577286100002719 0.0
    outer loop
      vertex 0.0005555702330196023 0.0008314696123025452 -0.005
      vertex 0.0004713967368259978 0.000881921264348355 0.005
      vertex 0.0005555702330196023 0.0008314696123025452 0.005
    endloop
  endfacet
  facet normal 0.4275550934302822 0.9039892931234432 0.0
    outer loop
      vertex 0.0004713967368259978 0.000881921264348355 -0.005
      vertex 0.00038268343236508984 0.0009238795325112868 -0.005
      vertex 0.00038268343236508984 0.0009238795325112868 0.005
    endloop
  endfacet
  facet normal 0.4275550934302822 0.9039892931234432 0.0
    outer loop
      vertex 0.0004713967368259978 0.000881921264348355 -0.005
      vertex 0.00038268343236508984 0.0009238795325112868 0.005
      vertex 0.0004713967368259978 0.000881921264348355 0.005
    endloop
  endfacet
  facet normal 0.3368898533922203 0.9415440651830207 0.0
    outer loop
      vertex 0.00038268343236508984 0.0009238795325112868 -0.005
      vertex 0.0002902846772544623 0.0009569403357322089 -0.005
      vertex 0.0002902846772544623 0.0009569403357322089 0.005
    endloop
  endfacet
  facet normal 0.3368898533922203 0.9415440651830207 0.0
    outer loop
      vertex 0.00038268343236508984 0.0009238795325112868 -0.005
      vertex 0.0002902846772544623 0.0009569403357322089 0.005
      vertex 0.00038268343236508984 0.0009238795325112868 0.005
    endloop
  endfacet
  facet normal 0.2429801799032634 0.9700312531945442 0.0
    outer loop
      vertex 0.0002902846772544623 0.0009569403357322089 -0.005
      vertex 0.0001950903220161283 0.0009807852804032304 -0.005
      vertex 0.0001950903220161283 0.0009807852804032304 0.005
    endloop
  endfacet
  facet normal 0.2429801799032634 0.9700312531945442 0.0
    outer loop
      vertex 0.0002902846772544623 0.0009569403357322089 -0.005
      vertex 0.0001950903220161283 0.0009807852804032304 0.005
      vertex 0.0002902846772544623 0.0009569403357322089 0.005
    endloop
  endfacet
  facet normal 0.14673047445536208 0.9891765099647809 0.0
    outer loop
      vertex 0.0001950903220161283 0.0009807852804032304 -0.005
      vertex 9.801714032956078e-05 0.000995184726672197 -0.005
      vertex 9.801714032956078e-05 0.000995184726672197 0.005
    endloop
  endfacet
  facet normal 0.14673047445536208 0.9891765099647809 0.0
    outer loop
      vertex 0.0001950903220161283 0.0009807852804032304 -0.005
      vertex 9.801714032956078e-05 0.000995184726672197 0.005
      vertex 0.0001950903220161283 0.0009807852804032304 0.005
    endloop
  endfacet
  facet normal 0.0490676743274181 0.9987954562051724 0.0
    outer loop
      vertex 9.801714032956078e-05 0.000995184726672197 -0.005
      vertex 6.123233995736766e-20 0.001 -0.005
      vertex 6.123233995736766e-20 0.001 0.005
    endloop
  endfacet
  facet normal 0.0490676743274181 0.9987954562051724 0.0
    outer loop
      vertex 9.801714032956078e-05 0.000995184726672197 -0.005
      vertex 6.123233995736766e-20 0.001 0.005
      vertex 9.801714032956078e-05 0.000995184726672197 0.005
    endloop
  endfacet
  facet normal -0.0490676743274181 0.9987954562051724 0.0
    outer loop
      vertex 6.123233995736766e-20 0.001 -0.005
      vertex -9.801714032956066e-05 0.000995184726672197 -0.005
      vertex -9.801714032956066e-05 0.000995184726672197 0.005
    endloop
  endfacet
  facet normal -0.0490676743274181 0.9987954562051724 0.0
    outer loop
      vertex 6.123233995736766e-20 0.001 -0.005
      vertex -9.801714032956066e-05 0.000995184726672197 0.005
      vertex 6.123233995736766e-20 0.001 0.005
    endloop
  endfacet
  facet normal -0.14673047445536205 0.9891765099647809 0.0
    outer loop
      vertex -9.801714032956066e-05 0.000995184726672197 -0.005
      vertex -0.0001950903220161282 0.0009807852804032304 -0.005
      vertex -0.0001950903220161282 0.0009807852804032304 0.005
    endloop
  endfacet
  facet normal -0.14673047445536205 0.9891765099647809 0.0
    outer loop
      vertex -9.801714032956066e-05 0.000995184726672197 -0.005
      vertex -0.0001950903220161282 0.0009807852804032304 0.005
      vertex -9.801714032956066e-05 0.000995184726672197 0.005
    endloop
  endfacet
  facet normal -0.24298017990326332 0.9700312531945443 0.0
    outer loop
      vertex -0.0001950903220161282 0.0009807852804032304 -0.005
      vertex -0.00029028467725446223 0.0009569403357322089 -0.005
      vertex -0.00029028467725446223 0.0009569403357322089 0.005
    endloop
  endfacet
  facet normal -0.24298017990326332 0.9700312531945443 0.0
    outer loop
      vertex -0.0001950903220161282 0.0009807852804032304 -0.005
      vertex -0.00029028467725446223 0.0009569403357322089 0.005
      vertex -0.0001950903220161282 0.0009807852804032304 0.005
    endloop
  endfacet
  facet normal -0.3368898533922205 0.9415440651830207 0.0
    outer loop
      vertex -0.00029028467725446223 0.0009569403357322089 -0.005
      vertex -0.00038268343236508973 0.0009238795325112868 -0.005
      vertex -0.00038268343236508973 0.0009238795325112868 0.005
    endloop
  endfacet
  facet normal -0.3368898533922205 0.9415440651830207 0.0
    outer loop
      vertex -0.00029028467725446223 0.0009569403357322089 -0.005
      vertex -0.00038268343236508973 0.0009238795325112868 0.005
      vertex -0.00029028467725446223 0.0009569403357322089 0.005
    endloop
  endfacet
  facet normal -0.42755509343028125 0.9039892931234436 0.0
    outer loop
      vertex -0.00038268343236508973 0.0009238795325112868 -0.005
      vertex -0.0004713967368259977 0.0008819212643483551 -0.005
      vertex -0.0004713967368259977 0.0008819212643483551 0.005
    endloop
  endfacet
  facet normal -0.42755509343028125 0.9039892931234436 0.0
    outer loop
      vertex -0.00038268343236508973 0.0009238795325112868 -0.005
      vertex -0.0004713967368259977 0.0008819212643483551 0.005
      vertex -0.00038268343236508973 0.0009238795325112868 0.005
    endloop
  endfacet
  facet normal -0.5141027441932211 0.8577286100002723 0.0
    outer loop
      vertex -0.0004713967368259977 0.0008819212643483551 -0.005
      vertex -0.000555570233019602 0.0008314696123025455 -0.005
      vertex -0.000555570233019602 0.0008314696123025455 0.005
    endloop
  endfacet
  facet normal -0.5141027441932211 0.8577286100002723 0.0
    outer loop
      vertex -0.0004713967368259977 0.0008819212643483551 -0.005
      vertex -0.000555570233019602 0.0008314696123025455 0.005
      vertex -0.0004713967368259977 0.0008819212643483551 0.005
    endloop
  endfacet
  facet normal -0.5956993044924342 0.8032075314806443 0.0
    outer loop
      vertex -0.000555570233019602 0.0008314696123025455 -0.005
      vertex -0.0006343932841636453 0.0007730104533627371 -0.005
      vertex -0.0006343932841636453 0.0007730104533627371 0.005
    endloop
  endfacet
  facet normal -0.5956993044924342 0.8032075314806443 0.0
    outer loop
      vertex -0.000555570233019602 0.0008314696123025455 -0.005
      vertex -0.0006343932841636453 0.0007730104533627371 0.005
      vertex -0.000555570233019602 0.0008314696123025455 0.005
    endloop
  endfacet
  facet normal -0.6715589548470178 0.7409511253549597 0.0
    outer loop
      vertex -0.0006343932841636453 0.0007730104533627371 -0.005
      vertex -0.0007071067811865475 0.0007071067811865476 -0.005
      vertex -0.0007071067811865475 0.0007071067811865476 0.005
    endloop
  endfacet
  facet normal -0.6715589548470178 0.7409511253549597 0.0
    outer loop
      vertex -0.0006343932841636453 0.0007730104533627371 -0.005
      vertex -0.0007071067811865475 0.0007071067811865476 0.005
      vertex -0.0006343932841636453 0.0007730104533627371 0.005
    endloop
  endfacet
  facet normal -0.7409511253549591 0.6715589548470182 0.0
    outer loop
      vertex -0.0007071067811865475 0.0007071067811865476 -0.005
      vertex -0.000773010453362737 0.0006343932841636455 -0.005
      vertex -0.000773010453362737 0.0006343932841636455 0.005
    endloop
  endfacet
  facet normal -0.7409511253549591 0.6715589548470182 0.0
    outer loop
      vertex -0.0007071067811865475 0.0007071067811865476 -0.005
      vertex -0.000773010453362737 0.0006343932841636455 0.005
      vertex -0.0007071067811865475 0.0007071067811865476 0.005
    endloop
  endfacet
  facet normal -0.8032075314806443 0.5956993044924342 0.0
    outer loop
      vertex -0.000773010453362737 0.0006343932841636455 -0.005
      vertex -0.0008314696123025454 0.0005555702330196022 -0.005
      vertex -0.0008314696123025454 0.0005555702330196022 0.005
    endloop
  endfacet
  facet normal -0.8032075314806443 0.5956993044924342 0.0
    outer loop
      vertex -0.000773010453362737 0.0006343932841636455 -0.005
      vertex -0.0008314696123025454 0.0005555702330196022 0.005
      vertex -0.000773010453362737 0.0006343932841636455 0.005
    endloop
  endfacet
  facet normal -0.8577286100002727 0.5141027441932207 0.0
    outer loop
      vertex -0.0008314696123025454 0.0005555702330196022 -0.005
      vertex -0.000881921264348355 0.0004713967368259978 -0.005
      vertex -0.000881921264348355 0.0004713967368259978 0.005
    endloop
  endfacet
  facet normal -0.8577286100002727 0.5141027441932207 0.0
    outer loop
      vertex -0.0008314696123025454 0.0005555702330196022 -0.005
      vertex -0.000881921264348355 0.0004713967368259978 0.005
      vertex -0.0008314696123025454 0.0005555702330196022 0.005
    endloop
  endfacet
  facet normal -0.9039892931234432 0.4275550934302822 0.0
    outer loop
      vertex -0.000881921264348355 0.0004713967368259978 -0.005
      vertex -0.0009238795325112868 0.00038268343236508984 -0.005
      vertex -0.0009238795325112868 0.00038268343236508984 0.005
    endloop
  endfacet
  facet normal -0.9039892931234432 0.4275550934302822 0.0
    outer loop
      vertex -0.000881921264348355 0.0004713967368259978 -0.005
      vertex -0.0009238795325112868 0.00038268343236508984 0.005
      vertex -0.000881921264348355 0.0004713967368259978 0.005
    endloop
  endfacet
  facet normal -0.9415440651830209 0.33688985339221944 0.0
    outer loop
      vertex -0.0009238795325112868 0.00038268343236508984 -0.005
      vertex -0.0009569403357322088 0.00029028467725446234 -0.005
      vertex -0.0009569403357322088 0.00029028467725446234 0.005
    endloop
  endfacet
  facet normal -0.9415440651830209 0.33688985339221944 0.0
    outer loop
      vertex -0.0009238795325112868 0.00038268343236508984 -0.005
      vertex -0.0009569403357322088 0.00029028467725446234 0.005
      vertex -0.0009238795325112868 0.00038268343236508984 0.005
    endloop
  endfacet
  facet normal -0.9700312531945438 0.24298017990326495 0.0
    outer loop
      vertex -0.0009569403357322088 0.00029028467725446234 -0.005
      vertex -0.0009807852804032304 0.00019509032201612858 -0.005
      vertex -0.0009807852804032304 0.00019509032201612858 0.005
    endloop
  endfacet
  facet normal -0.9700312531945438 0.24298017990326495 0.0
    outer loop
      vertex -0.0009569403357322088 0.00029028467725446234 -0.005
      vertex -0.0009807852804032304 0.00019509032201612858 0.005
      vertex -0.0009569403357322088 0.00029028467725446234 0.005
    endloop
  endfacet
  facet normal -0.9891765099647809 0.14673047445536178 0.0
    outer loop
      vertex -0.0009807852804032304 0.00019509032201612858 -0.005
      vertex -0.000995184726672197 9.801714032956084e-05 -0.005
      vertex -0.000995184726672197 9.801714032956084e-05 0.005
    endloop
  endfacet
  facet normal -0.9891765099647809 0.14673047445536178 0.0
    outer loop
      vertex -0.0009807852804032304 0.00019509032201612858 -0.005
      vertex -0.000995184726672197 9.801714032956084e-05 0.005
      vertex -0.0009807852804032304 0.00019509032201612858 0.005
    endloop
  endfacet
  facet normal -0.9987954562051724 0.0490676743274181 0.0
    outer loop
      vertex -0.000995184726672197 9.801714032956084e-05 -0.005
      vertex -0.001 1.2246467991473531e-19 -0.005
      vertex -0.001 1.2246467991473531e-19 0.005
    endloop
  endfacet
  facet normal -0.9987954562051724 0.0490676743274181 0.0
    outer loop
      vertex -0.000995184726672197 9.801714032956084e-05 -0.005
      vertex -0.001 1.2246467991473531e-19 0.005
      vertex -0.000995184726672197 9.801714032956084e-05 0.005
    endloop
  endfacet
  facet normal -0.9987954562051724 -0.0490676743274181 0.0
    outer loop
      vertex -0.001 1.2246467991473531e-19 -0.005
      vertex -0.000995184726672197 -9.801714032956059e-05 -0.005
      vertex -0.000995184726672197 -9.801714032956059e-05 0.005
    endloop
  endfacet
  facet normal -0.9987954562051724 -0.0490676743274181 0.0
    outer loop
      vertex -0.001 1.2246467991473531e-19 -0.005
      vertex -0.000995184726672197 -9.801714032956059e-05 0.005
      vertex -0.001 1.2246467991473531e-19 0.005
    endloop
  endfacet
  facet normal -0.9891765099647809 -0.14673047445536175 0.0
    outer loop
      vertex -0.000995184726672197 -9.801714032956059e-05 -0.005
      vertex -0.0009807852804032304 -0.00019509032201612837 -0.005
      vertex -0.0009807852804032304 -0.00019509032201612837 0.005
    endloop
  endfacet
  facet normal -0.9891765099647809 -0.14673047445536175 0.0
    outer loop
      vertex -0.000995184726672197 -9.801714032956059e-05 -0.005
      vertex -0.0009807852804032304 -0.00019509032201612837 0.005
      vertex -0.000995184726672197 -9.801714032956059e-05 0.005
    endloop
  endfacet
  facet normal -0.970031253194544 -0.2429801799032638 0.0
    outer loop
      vertex -0.0009807852804032304 -0.00019509032201612837 -0.005
      vertex -0.0009569403357322089 -0.0002902846772544622 -0.005
      vertex -0.0009569403357322089 -0.0002902846772544622 0.005
    endloop
  endfacet
  facet normal -0.970031253194544 -0.2429801799032638 0.0
    outer loop
      vertex -0.0009807852804032304 -0.00019509032201612837 -0.005
      vertex -0.0009569403357322089 -0.0002902846772544622 0.005
      vertex -0.0009807852804032304 -0.00019509032201612837 0.005
    endloop
  endfacet
  facet normal -0.9415440651830207 -0.3368898533922205 0.0
    outer loop
      vertex -0.0009569403357322089 -0.0002902846772544622 -0.005
      vertex -0.0009238795325112868 -0.0003826834323650897 -0.005
      vertex -0.0009238795325112868 -0.0003826834323650897 0.005
    endloop
  endfacet
  facet normal -0.9415440651830207 -0.3368898533922205 0.0
    outer loop
      vertex -0.0009569403357322089 -0.0002902846772544622 -0.005
      vertex -0.0009238795325112868 -0.0003826834323650897 0.005
      vertex -0.0009569403357322089 -0.0002902846772544622 0.005
    endloop
  endfacet
  facet normal -0.9039892931234436 -0.42755509343028125 0.0
    outer loop
      vertex -0.0009238795325112868 -0.0003826834323650897 -0.005
      vertex -0.0008819212643483551 -0.00047139673682599763 -0.005
      vertex -0.0008819212643483551 -0.00047139673682599763 0.005
    endloop
  endfacet
  facet normal -0.9039892931234436 -0.42755509343028125 0.0
    outer loop
      vertex -0.0009238795325112868 -0.0003826834323650897 -0.005
      vertex -0.0008819212643483551 -0.00047139673682599763 0.005
      vertex -0.0009238795325112868 -0.0003826834323650897 0.005
    endloop
  endfacet
  facet normal -0.8577286100002726 -0.5141027441932209 0.0
    outer loop
      vertex -0.0008819212643483551 -0.00047139673682599763 -0.005
      vertex -0.0008314696123025455 -0.000555570233019602 -0.005
      vertex -0.0008314696123025455 -0.000555570233019602 0.005
    endloop
  endfacet
  facet normal -0.8577286100002726 -0.5141027441932209 0.0
    outer loop
      vertex -0.0008819212643483551 -0.00047139673682599763 -0.005
      vertex -0.0008314696123025455 -0.000555570233019602 0.005
      vertex -0.0008819212643483551 -0.00047139673682599763 0.005
    endloop
  endfacet
  facet normal -0.8032075314806443 -0.5956993044924342 0.0
    outer loop
      vertex -0.0008314696123025455 -0.000555570233019602 -0.005
      vertex -0.0007730104533627371 -0.0006343932841636453 -0.005
      vertex -0.0007730104533627371 -0.0006343932841636453 0.005
    endloop
  endfacet
  facet normal -0.8032075314806443 -0.5956993044924342 0.0
    outer loop
      vertex -0.0008314696123025455 -0.000555570233019602 -0.005
      vertex -0.0007730104533627371 -0.0006343932841636453 0.005
      vertex -0.0008314696123025455 -0.000555570233019602 0.005
    endloop
  endfacet
  facet normal -0.7409511253549602 -0.6715589548470171 0.0
    outer loop
      vertex -0.0007730104533627371 -0.0006343932841636453 -0.005
      vertex -0.0007071067811865477 -0.0007071067811865475 -0.005
      vertex -0.0007071067811865477 -0.0007071067811865475 0.005
    endloop
  endfacet
  facet normal -0.7409511253549602 -0.6715589548470171 0.0
    outer loop
      vertex -0.0007730104533627371 -0.0006343932841636453 -0.005
      vertex -0.0007071067811865477 -0.0007071067811865475 0.005
      vertex -0.0007730104533627371 -0.0006343932841636453 0.005
    endloop
  endfacet
  facet normal -0.6715589548470181 -0.7409511253549593 0.0
    outer loop
      vertex -0.0007071067811865477 -0.0007071067811865475 -0.005
      vertex -0.000634393284163646 -0.0007730104533627366 -0.005
      vertex -0.000634393284163646 -0.0007730104533627366 0.005
    endloop
  endfacet
  facet normal -0.6715589548470181 -0.7409511253549593 0.0
    outer loop
      vertex -0.0007071067811865477 -0.0007071067811865475 -0.005
      vertex -0.000634393284163646 -0.0007730104533627366 0.005
      vertex -0.0007071067811865477 -0.0007071067811865475 0.005
    endloop
  endfacet
  facet normal -0.5956993044924336 -0.8032075314806449 0.0
    outer loop
      vertex -0.000634393284163646 -0.0007730104533627366 -0.005
      vertex -0.0005555702330196022 -0.0008314696123025453 -0.005
      vertex -0.0005555702330196022 -0.0008314696123025453 0.005
    endloop
  endfacet
  facet normal -0.5956993044924336 -0.8032075314806449 0.0
    outer loop
      vertex -0.000634393284163646 -0.0007730104533627366 -0.005
      vertex -0.0005555702330196022 -0.0008314696123025453 0.005
      vertex -0.000634393284163646 -0.0007730104533627366 0.005
    endloop
  endfacet
  facet normal -0.5141027441932218 -0.857728610000272 0.0
    outer loop
      vertex -0.0005555702330196022 -0.0008314696123025453 -0.005
      vertex -0.00047139673682599785 -0.000881921264348355 -0.005
      vertex -0.00047139673682599785 -0.000881921264348355 0.005
    endloop
  endfacet
  facet normal -0.5141027441932218 -0.857728610000272 0.0
    outer loop
      vertex -0.0005555702330196022 -0.0008314696123025453 -0.005
      vertex -0.00047139673682599785 -0.000881921264348355 0.005
      vertex -0.0005555702330196022 -0.0008314696123025453 0.005
    endloop
  endfacet
  facet normal -0.4275550934302821 -0.9039892931234432 0.0
    outer loop
      vertex -0.00047139673682599785 -0.000881921264348355 -0.005
      vertex -0.0003826834323650903 -0.0009238795325112865 -0.005
      vertex -0.0003826834323650903 -0.0009238795325112865 0.005
    endloop
  endfacet
  facet normal -0.4275550934302821 -0.9039892931234432 0.0
    outer loop
      vertex -0.00047139673682599785 -0.000881921264348355 -0.005
      vertex -0.0003826834323650903 -0.0009238795325112865 0.005
      vertex -0.00047139673682599785 -0.000881921264348355 0.005
    endloop
  endfacet
  facet normal -0.33688985339222005 -0.9415440651830209 0.0
    outer loop
      vertex -0.0003826834323650903 -0.0009238795325112865 -0.005
      vertex -0.0002902846772544624 -0.0009569403357322088 -0.005
      vertex -0.0002902846772544624 -0.0009569403357322088 0.005
    endloop
  endfacet
  facet normal -0.33688985339222005 -0.9415440651830209 0.0
    outer loop
      vertex -0.0003826834323650903 -0.0009238795325112865 -0.005
      vertex -0.0002902846772544624 -0.0009569403357322088 0.005
      vertex -0.0003826834323650903 -0.0009238795325112865 0.005
    endloop
  endfacet
  facet normal -0.242980179903265 -0.9700312531945438 0.0
    outer loop
      vertex -0.0002902846772544624 -0.0009569403357322088 -0.005
      vertex -0.00019509032201612866 -0.0009807852804032304 -0.005
      vertex -0.00019509032201612866 -0.0009807852804032304 0.005
    endloop
  endfacet
  facet normal -0.242980179903265 -0.9700312531945438 0.0
    outer loop
      vertex -0.0002902846772544624 -0.0009569403357322088 -0.005
      vertex -0.00019509032201612866 -0.0009807852804032304 0.005
      vertex -0.0002902846772544624 -0.0009569403357322088 0.005
    endloop
  endfacet
  facet normal -0.14673047445536108 -0.989176509964781 0.0
    outer loop
      vertex -0.00019509032201612866 -0.0009807852804032304 -0.005
      vertex -9.801714032956045e-05 -0.000995184726672197 -0.005
      vertex -9.801714032956045e-05 -0.000995184726672197 0.005
    endloop
  endfacet
  facet normal -0.14673047445536108 -0.989176509964781 0.0
    outer loop
      vertex -0.00019509032201612866 -0.0009807852804032304 -0.005
      vertex -9.801714032956045e-05 -0.000995184726672197 0.005
      vertex -0.00019509032201612866 -0.0009807852804032304 0.005
    endloop
  endfacet
  facet normal -0.049067674327418306 -0.9987954562051722 0.0
    outer loop
      vertex -9.801714032956045e-05 -0.000995184726672197 -0.005
      vertex -1.8369701987210298e-19 -0.001 -0.005
      vertex -1.8369701987210298e-19 -0.001 0.005
    endloop
  endfacet
  facet normal -0.049067674327418306 -0.9987954562051722 0.0
    outer loop
      vertex -9.801714032956045e-05 -0.000995184726672197 -0.005
      vertex -1.8369701987210298e-19 -0.001 0.005
      vertex -9.801714032956045e-05 -0.000995184726672197 0.005
    endloop
  endfacet
  facet normal 0.049067674327418306 -0.9987954562051722 0.0
    outer loop
      vertex -1.8369701987210298e-19 -0.001 -0.005
      vertex 9.801714032956009e-05 -0.000995184726672197 -0.005
      vertex 9.801714032956009e-05 -0.000995184726672197 0.005
    endloop
  endfacet
  facet normal 0.049067674327418306 -0.9987954562051722 0.0
    outer loop
      vertex -1.8369701987210298e-19 -0.001 -0.005
      vertex 9.801714032956009e-05 -0.000995184726672197 0.005
      vertex -1.8369701987210298e-19 -0.001 0.005
    endloop
  endfacet
  facet normal 0.1467304744553611 -0.989176509964781 0.0
    outer loop
      vertex 9.801714032956009e-05 -0.000995184726672197 -0.005
      vertex 0.00019509032201612828 -0.0009807852804032304 -0.005
      vertex 0.00019509032201612828 -0.0009807852804032304 0.005
    endloop
  endfacet
  facet normal 0.1467304744553611 -0.989176509964781 0.0
    outer loop
      vertex 9.801714032956009e-05 -0.000995184726672197 -0.005
      vertex 0.00019509032201612828 -0.0009807852804032304 0.005
      vertex 9.801714032956009e-05 -0.000995184726672197 0.005
    endloop
  endfacet
  facet normal 0.24298017990326373 -0.970031253194544 0.0
    outer loop
      vertex 0.00019509032201612828 -0.0009807852804032304 -0.005
      vertex 0.0002902846772544621 -0.0009569403357322089 -0.005
      vertex 0.0002902846772544621 -0.0009569403357322089 0.005
    endloop
  endfacet
  facet normal 0.24298017990326373 -0.970031253194544 0.0
    outer loop
      vertex 0.00019509032201612828 -0.0009807852804032304 -0.005
      vertex 0.0002902846772544621 -0.0009569403357322089 0.005
      vertex 0.00019509032201612828 -0.0009807852804032304 0.005
    endloop
  endfacet
  facet normal 0.33688985339222016 -0.9415440651830207 0.0
    outer loop
      vertex 0.0002902846772544621 -0.0009569403357322089 -0.005
      vertex 0.00038268343236509 -0.0009238795325112866 -0.005
      vertex 0.00038268343236509 -0.0009238795325112866 0.005
    endloop
  endfacet
  facet normal 0.33688985339222016 -0.9415440651830207 0.0
    outer loop
      vertex 0.0002902846772544621 -0.0009569403357322089 -0.005
      vertex 0.00038268343236509 -0.0009238795325112866 0.005
      vertex 0.0002902846772544621 -0.0009569403357322089 0.005
    endloop
  endfacet
  facet normal 0.4275550934302819 -0.9039892931234434 0.0
    outer loop
      vertex 0.00038268343236509 -0.0009238795325112866 -0.005
      vertex 0.0004713967368259976 -0.0008819212643483551 -0.005
      vertex 0.0004713967368259976 -0.0008819212643483551 0.005
    endloop
  endfacet
  facet normal 0.4275550934302819 -0.9039892931234434 0.0
    outer loop
      vertex 0.00038268343236509 -0.0009238795325112866 -0.005
      vertex 0.0004713967368259976 -0.0008819212643483551 0.005
      vertex 0.00038268343236509 -0.0009238795325112866 0.005
    endloop
  endfacet
  facet normal 0.5141027441932204 -0.8577286100002729 0.0
    outer loop
      vertex 0.0004713967368259976 -0.0008819212643483551 -0.005
      vertex 0.0005555702330196019 -0.0008314696123025456 -0.005
      vertex 0.0005555702330196019 -0.0008314696123025456 0.005
    endloop
  endfacet
  facet normal 0.5141027441932204 -0.8577286100002729 0.0
    outer loop
      vertex 0.0004713967368259976 -0.0008819212643483551 -0.005
      vertex 0.0005555702330196019 -0.0008314696123025456 0.005
      vertex 0.0004713967368259976 -0.0008819212643483551 0.005
    endloop
  endfacet
  facet normal 0.5956993044924342 -0.8032075314806442 0.0
    outer loop
      vertex 0.0005555702330196019 -0.0008314696123025456 -0.005
      vertex 0.0006343932841636457 -0.0007730104533627369 -0.005
      vertex 0.0006343932841636457 -0.0007730104533627369 0.005
    endloop
  endfacet
  facet normal 0.5956993044924342 -0.8032075314806442 0.0
    outer loop
      vertex 0.0005555702330196019 -0.0008314696123025456 -0.005
      vertex 0.0006343932841636457 -0.0007730104533627369 0.005
      vertex 0.0005555702330196019 -0.0008314696123025456 0.005
    endloop
  endfacet
  facet normal 0.6715589548470176 -0.7409511253549598 0.0
    outer loop
      vertex 0.0006343932841636457 -0.0007730104533627369 -0.005
      vertex 0.0007071067811865475 -0.0007071067811865477 -0.005
      vertex 0.0007071067811865475 -0.0007071067811865477 0.005
    endloop
  endfacet
  facet normal 0.6715589548470176 -0.7409511253549598 0.0
    outer loop
      vertex 0.0006343932841636457 -0.0007730104533627369 -0.005
      vertex 0.0007071067811865475 -0.0007071067811865477 0.005
      vertex 0.0006343932841636457 -0.0007730104533627369 0.005
    endloop
  endfacet
  facet normal 0.7409511253549593 -0.6715589548470181 0.0
    outer loop
      vertex 0.0007071067811865475 -0.0007071067811865477 -0.005
      vertex 0.0007730104533627366 -0.000634393284163646 -0.005
      vertex 0.0007730104533627366 -0.000634393284163646 0.005
    endloop
  endfacet
  facet normal 0.7409511253549593 -0.6715589548470181 0.0
    outer loop
      vertex 0.0007071067811865475 -0.0007071067811865477 -0.005
      vertex 0.0007730104533627366 -0.000634393284163646 0.005
      vertex 0.0007071067811865475 -0.0007071067811865477 0.005
    endloop
  endfacet
  facet normal 0.8032075314806449 -0.5956993044924336 0.0
    outer loop
      vertex 0.0007730104533627366 -0.000634393284163646 -0.005
      vertex 0.0008314696123025453 -0.0005555702330196022 -0.005
      vertex 0.0008314696123025453 -0.0005555702330196022 0.005
    endloop
  endfacet
  facet normal 0.8032075314806449 -0.5956993044924336 0.0
    outer loop
      vertex 0.0007730104533627366 -0.000634393284163646 -0.005
      vertex 0.0008314696123025453 -0.0005555702330196022 0.005
      vertex 0.0007730104533627366 -0.000634393284163646 0.005
    endloop
  endfacet
  facet normal 0.8577286100002718 -0.514102744193222 0.0
    outer loop
      vertex 0.0008314696123025453 -0.0005555702330196022 -0.005
      vertex 0.000881921264348355 -0.0004713967368259979 -0.005
      vertex 0.000881921264348355 -0.0004713967368259979 0.005
    endloop
  endfacet
  facet normal 0.8577286100002718 -0.514102744193222 0.0
    outer loop
      vertex 0.0008314696123025453 -0.0005555702330196022 -0.005
      vertex 0.000881921264348355 -0.0004713967368259979 0.005
      vertex 0.0008314696123025453 -0.0005555702330196022 0.005
    endloop
  endfacet
  facet normal 0.9039892931234432 -0.4275550934302821 0.0
    outer loop
      vertex 0.000881921264348355 -0.0004713967368259979 -0.005
      vertex 0.0009238795325112865 -0.0003826834323650904 -0.005
      vertex 0.0009238795325112865 -0.0003826834323650904 0.005
    endloop
  endfacet
  facet normal 0.9039892931234432 -0.4275550934302821 0.0
    outer loop
      vertex 0.000881921264348355 -0.0004713967368259979 -0.005
      vertex 0.0009238795325112865 -0.0003826834323650904 0.005
      vertex 0.000881921264348355 -0.0004713967368259979 0.005
    endloop
  endfacet
  facet normal 0.9415440651830209 -0.33688985339222005 0.0
    outer loop
      vertex 0.0009238795325112865 -0.0003826834323650904 -0.005
      vertex 0.0009569403357322088 -0.00029028467725446245 -0.005
      vertex 0.0009569403357322088 -0.00029028467725446245 0.005
    endloop
  endfacet
  facet normal 0.9415440651830209 -0.33688985339222005 0.0
    outer loop
      vertex 0.0009238795325112865 -0.0003826834323650904 -0.005
      vertex 0.0009569403357322088 -0.00029028467725446245 0.005
      vertex 0.0009238795325112865 -0.0003826834323650904 0.005
    endloop
  endfacet
  facet normal 0.9700312531945438 -0.242980179903265 0.0
    outer loop
      vertex 0.0009569403357322088 -0.00029028467725446245 -0.005
      vertex 0.0009807852804032304 -0.00019509032201612872 -0.005
      vertex 0.0009807852804032304 -0.00019509032201612872 0.005
    endloop
  endfacet
  facet normal 0.9700312531945438 -0.242980179903265 0.0
    outer loop
      vertex 0.0009569403357322088 -0.00029028467725446245 -0.005
      vertex 0.0009807852804032304 -0.00019509032201612872 0.005
      vertex 0.0009569403357322088 -0.00029028467725446245 0.005
    endloop
  endfacet
  facet normal 0.989176509964781 -0.1467304744553611 0.0
    outer loop
      vertex 0.0009807852804032304 -0.00019509032201612872 -0.005
      vertex 0.000995184726672197 -9.801714032956052e-05 -0.005
      vertex 0.000995184726672197 -9.801714032956052e-05 0.005
    endloop
  endfacet
  facet normal 0.989176509964781 -0.1467304744553611 0.0
    outer loop
      vertex 0.0009807852804032304 -0.00019509032201612872 -0.005
      vertex 0.000995184726672197 -9.801714032956052e-05 0.005
      vertex 0.0009807852804032304 -0.00019509032201612872 0.005
    endloop
  endfacet
  facet normal 0.9987954562051722 -0.049067674327418306 0.0
    outer loop
      vertex 0.000995184726672197 -9.801714032956052e-05 -0.005
      vertex 0.001 -2.4492935982947063e-19 -0.005
      vertex 0.001 -2.4492935982947063e-19 0.005
    endloop
  endfacet
  facet normal 0.9987954562051722 -0.049067674327418306 0.0
    outer loop
      vertex 0.000995184726672197 -9.801714032956052e-05 -0.005
      vertex 0.001 -2.4492935982947063e-19 0.005
      vertex 0.000995184726672197 -9.801714032956052e-05 0.005
    endloop
  endfacet
  facet normal 0 0 -1
    outer loop
      vertex 0 0 -0.005
      vertex 0.000995184726672197 9.80171403295606e-05 -0.005
      vertex 0.001 0.0 -0.005
    endloop
  endfacet
  facet normal 0 0 -1
    outer loop
      vertex 0 0 -0.005
      vertex 0.0009807852804032304 0.00019509032201612826 -0.005
      vertex 0.000995184726672197 9.80171403295606e-05 -0.005
    endloop
  endfacet
  facet normal 0 0 -1
    outer loop
      vertex 0 0 -0.005
      vertex 0.0009569403357322088 0.00029028467725446234 -0.005
      vertex 0.0009807852804032304 0.00019509032201612826 -0.005
    endloop
  endfacet
  facet normal 0 0 -1
    outer loop
      vertex 0 0 -0.005
      vertex 0.0009238795325112868 0.0003826834323650898 -0.005
      vertex 0.0009569403357322088 0.00029028467725446234 -0.005
    endloop
  endfacet
  facet normal 0 0 -1
    outer loop
      vertex 0 0 -0.005
      vertex 0.0008819212643483551 0.00047139673682599763 -0.005
      vertex 0.0009238795325112868 0.0003826834323650898 -0.005
    endloop
  endfacet
  facet normal 0 0 -1
    outer loop
      vertex 0 0 -0.005
      vertex 0.0008314696123025453 0.0005555702330196022 -0.005
      vertex 0.0008819212643483551 0.00047139673682599763 -0.005
    endloop
  endfacet
  facet normal 0 0 -1
    outer loop
      vertex 0 0 -0.005
      vertex 0.000773010453362737 0.0006343932841636455 -0.005
      vertex 0.0008314696123025453 0.0005555702330196022 -0.005
    endloop
  endfacet
  facet normal 0 0 -1
    outer loop
      vertex 0 0 -0.005
      vertex 0.0007071067811865476 0.0007071067811865475 -0.005
      vertex 0.000773010453362737 0.0006343932841636455 -0.005
    endloop
  endfacet
  facet normal 0 0 -1
    outer loop
      vertex 0 0 -0.005
      vertex 0.0006343932841636457 0.0007730104533627369 -0.005
      vertex 0.0007071067811865476 0.0007071067811865475 -0.005
    endloop
  endfacet
  facet normal 0 0 -1
    outer loop
      vertex 0 0 -0.005
      vertex 0.0005555702330196023 0.0008314696123025452 -0.005
      vertex 0.0006343932841636457 0.0007730104533627369 -0.005
    endloop
  endfacet
  facet normal 0 0 -1
    outer loop
      vertex 0 0 -0.005
      vertex 0.0004713967368259978 0.000881921264348355 -0.005
      vertex 0.0005555702330196023 0.0008314696123025452 -0.005
    endloop
  endfacet
  facet normal 0 0 -1
    outer loop
      vertex 0 0 -0.005
      vertex 0.00038268343236508984 0.0009238795325112868 -0.005
      vertex 0.0004713967368259978 0.000881921264348355 -0.005
    endloop
  endfacet
  facet normal 0 0 -1
    outer loop
      vertex 0 0 -0.005
      vertex 0.0002902846772544623 0.0009569403357322089 -0.005
      vertex 0.00038268343236508984 0.0009238795325112868 -0.005
    endloop
  endfacet
  facet normal 0 0 -1
    outer loop
      vertex 0 0 -0.005
      vertex 0.0001950903220161283 0.0009807852804032304 -0.005
      vertex 0.0002902846772544623 0.0009569403357322089 -0.005
    endloop
  endfacet
  facet normal 0 0 -1
    outer loop
      vertex 0 0 -0.005
      vertex 9.801714032956078e-05 0.000995184726672197 -0.005
      vertex 0.0001950903220161283 0.0009807852804032304 -0.005
    endloop
  endfacet
  facet normal 0 0 -1
    outer loop
      vertex 0 0 -0.005
      vertex 6.123233995736766e-20 0.001 -0.005
      vertex 9.801714032956078e-05 0.000995184726672197 -0.005
    endloop
  endfacet
  facet normal 0 0 -1
    outer loop
      vertex 0 0 -0.005
      vertex -9.801714032956066e-05 0.000995184726672197 -0.005
      vertex 6.123233995736766e-20 0.001 -0.005
    endloop
  endfacet
  facet normal 0 0 -1
    outer loop
      vertex 0 0 -0.005
      vertex -0.0001950903220161282 0.0009807852804032304 -0.005
      vertex -9.801714032956066e-05 0.000995184726672197 -0.005
    endloop
  endfacet
  facet normal 0 0 -1
    outer loop
      vertex 0 0 -0.005
      vertex -0.00029028467725446223 0.0009569403357322089 -0.005
      vertex -0.0001950903220161282 0.0009807852804032304 -0.005
    endloop
  endfacet
  facet normal 0 0 -1
    outer loop
      vertex 0 0 -0.005
      vertex -0.00038268343236508973 0.0009238795325112868 -0.005
      vertex -0.00029028467725446223 0.0009569403357322089 -0.005
    endloop
  endfacet
  facet normal 0 0 -1
    outer loop
      vertex 0 0 -0.005
      vertex -0.0004713967368259977 0.0008819212643483551 -0.005
      vertex -0.00038268343236508973 0.0009238795325112868 -0.005
    endloop
  endfacet
  facet normal 0 0 -1
    outer loop
      vertex 0 0 -0.005
      vertex -0.000555570233019602 0.0008314696123025455 -0.005
      vertex -0.0004713967368259977 0.0008819212643483551 -0.005
    endloop
  endfacet
  facet normal 0 0 -1
    outer loop
      vertex 0 0 -0.005
      vertex -0.0006343932841636453 0.0007730104533627371 -0.005
      vertex -0.000555570233019602 0.0008314696123025455 -0.005
    endloop
  endfacet
  facet normal 0 0 -1
    outer loop
      vertex 0 0 -0.005
      vertex -0.0007071067811865475 0.0007071067811865476 -0.005
      vertex -0.0006343932841636453 0.0007730104533627371 -0.005
    endloop
  endfacet
  facet normal 0 0 -1
    outer loop
      vertex 0 0 -0.005
      vertex -0.000773010453362737 0.0006343932841636455 -0.005
      vertex -0.0007071067811865475 0.0007071067811865476 -0.005
    endloop
  endfacet
  facet normal 0 0 -1
    outer loop
      vertex 0 0 -0.005
      vertex -0.0008314696123025454 0.0005555702330196022 -0.005
      vertex -0.000773010453362737 0.0006343932841636455 -0.005
    endloop
  endfacet
  facet normal 0 0 -1
    outer loop
      vertex 0 0 -0.005
      vertex -0.000881921264348355 0.0004713967368259978 -0.005
      vertex -0.0008314696123025454 0.0005555702330196022 -0.005
    endloop
  endfacet
  facet normal 0 0 -1
    outer loop
      vertex 0 0 -0.005
      vertex -0.0009238795325112868 0.00038268343236508984 -0.005
      vertex -0.000881921264348355 0.0004713967368259978 -0.005
    endloop
  endfacet
  facet normal 0 0 -1
    outer loop
      vertex 0 0 -0.005
      vertex -0.0009569403357322088 0.00029028467725446234 -0.005
      vertex -0.0009238795325112868 0.00038268343236508984 -0.005
    endloop
  endfacet
  facet normal 0 0 -1
    outer loop
      vertex 0 0 -0.005
      vertex -0.0009807852804032304 0.00019509032201612858 -0.005
      vertex -0.0009569403357322088 0.00029028467725446234 -0.005
    endloop
  endfacet
  facet normal 0 0 -1
    outer loop
      vertex 0 0 -0.005
      vertex -0.000995184726672197 9.801714032956084e-05 -0.005
      vertex -0.0009807852804032304 0.00019509032201612858 -0.005
    endloop
  endfacet
  facet normal 0 0 -1
    outer loop
      vertex 0 0 -0.005
      vertex -0.001 1.2246467991473531e-19 -0.005
      vertex -0.000995184726672197 9.801714032956084e-05 -0.005
    endloop
  endfacet
  facet normal 0 0 -1
    outer loop
      vertex 0 0 -0.005
      vertex -0.000995184726672197 -9.801714032956059e-05 -0.005
      vertex -0.001 1.2246467991473531e-19 -0.005
    endloop
  endfacet
  facet normal 0 0 -1
    outer loop
      vertex 0 0 -0.005
      vertex -0.0009807852804032304 -0.00019509032201612837 -0.005
      vertex -0.000995184726672197 -9.801714032956059e-05 -0.005
    endloop
  endfacet
  facet normal 0 0 -1
    outer loop
      vertex 0 0 -0.005
      vertex -0.0009569403357322089 -0.0002902846772544622 -0.005
      vertex -0.0009807852804032304 -0.00019509032201612837 -0.005
    endloop
  endfacet
  facet normal 0 0 -1
    outer loop
      vertex 0 0 -0.005
      vertex -0.0009238795325112868 -0.0003826834323650897 -0.005
      vertex -0.0009569403357322089 -0.0002902846772544622 -0.005
    endloop
  endfacet
  facet normal 0 0 -1
    outer loop
      vertex 0 0 -0.005
      vertex -0.0008819212643483551 -0.00047139673682599763 -0.005
      vertex -0.0009238795325112868 -0.0003826834323650897 -0.005
    endloop
  endfacet
  facet normal 0 0 -1
    outer loop
      vertex 0 0 -0.005
      vertex -0.0008314696123025455 -0.000555570233019602 -0.005
      vertex -0.0008819212643483551 -0.00047139673682599763 -0.005
    endloop
  endfacet
  facet normal 0 0 -1
    outer loop
      vertex 0 0 -0.005
      vertex -0.0007730104533627371 -0.0006343932841636453 -0.005
      vertex -0.0008314696123025455 -0.000555570233019602 -0.005
    endloop
  endfacet
  facet normal 0 0 -1
    outer loop
      vertex 0 0 -0.005
      vertex -0.0007071067811865477 -0.0007071067811865475 -0.005
      vertex -0.0007730104533627371 -0.0006343932841636453 -0.005
    endloop
  endfacet
  facet normal 0 0 -1
    outer loop
      vertex 0 0 -0.005
      vertex -0.000634393284163646 -0.0007730104533627366 -0.005
      vertex -0.0007071067811865477 -0.0007071067811865475 -0.005
    endloop
  endfacet
  facet normal 0 0 -1
    outer loop
      vertex 0 0 -0.005
      vertex -0.0005555702330196022 -0.0008314696123025453 -0.005
      vertex -0.000634393284163646 -0.0007730104533627366 -0.005
    endloop
  endfacet
  facet normal 0 0 -1
    outer loop
      vertex 0 0 -0.005
      vertex -0.00047139673682599785 -0.000881921264348355 -0.005
      vertex -0.0005555702330196022 -0.0008314696123025453 -0.005
    endloop
  endfacet
  facet normal 0 0 -1
    outer loop
      vertex 0 0 -0.005
      vertex -0.0003826834323650903 -0.0009238795325112865 -0.005
      vertex -0.00047139673682599785 -0.000881921264348355 -0.005
    endloop
  endfacet
  facet normal 0 0 -1
    outer loop
      vertex 0 0 -0.005
      vertex -0.0002902846772544624 -0.0009569403357322088 -0.005
      vertex -0.0003826834323650903 -0.0009238795325112865 -0.005
    endloop
  endfacet
  facet normal 0 0 -1
    outer loop
      vertex 0 0 -0.005
      vertex -0.00019509032201612866 -0.0009807852804032304 -0.005
      vertex -0.0002902846772544624 -0.0009569403357322088 -0.005
    endloop
  endfacet
  facet normal 0 0 -1
    outer loop
      vertex 0 0 -0.005
      vertex -9.801714032956045e-05 -0.000995184726672197 -0.005
      vertex -0.00019509032201612866 -0.0009807852804032304 -0.005
    endloop
  endfacet
  facet normal 0 0 -1
    outer loop
      vertex 0 0 -0.005
      vertex -1.8369701987210298e-19 -0.001 -0.005
      vertex -9.801714032956045e-05 -0.000995184726672197 -0.005
    endloop
  endfacet
  facet normal 0 0 -1
    outer loop
      vertex 0 0 -0.005
      vertex 9.801714032956009e-05 -0.000995184726672197 -0.005
      vertex -1.8369701987210298e-19 -0.001 -0.005
    endloop
  endfacet
  facet normal 0 0 -1
    outer loop
      vertex 0 0 -0.005
      vertex 0.00019509032201612828 -0.0009807852804032304 -0.005
      vertex 9.801714032956009e-05 -0.000995184726672197 -0.005
    endloop
  endfacet
  facet normal 0 0 -1
    outer loop
      vertex 0 0 -0.005
      vertex 0.0002902846772544621 -0.0009569403357322089 -0.005
      vertex 0.00019509032201612828 -0.0009807852804032304 -0.005
    endloop
  endfacet
  facet normal 0 0 -1
    outer loop
      vertex 0 0 -0.005
      vertex 0.00038268343236509 -0.0009238795325112866 -0.005
      vertex 0.0002902846772544621 -0.0009569403357322089 -0.005
    endloop
  endfacet
  facet normal 0 0 -1
    outer loop
      vertex 0 0 -0.005
      vertex 0.0004713967368259976 -0.0008819212643483551 -0.005
      vertex 0.00038268343236509 -0.0009238795325112866 -0.005
    endloop
  endfacet
  facet normal 0 0 -1
    outer loop
      vertex 0 0 -0.005
      vertex 0.0005555702330196019 -0.0008314696123025456 -0.005
      vertex 0.0004713967368259976 -0.0008819212643483551 -0.005
    endloop
  endfacet
  facet normal 0 0 -1
    outer loop
      vertex 0 0 -0.005
      vertex 0.0006343932841636457 -0.0007730104533627369 -0.005
      vertex 0.0005555702330196019 -0.0008314696123025456 -0.005
    endloop
  endfacet
  facet normal 0 0 -1
    outer loop
      vertex 0 0 -0.005
      vertex 0.0007071067811865475 -0.0007071067811865477 -0.005
      vertex 0.0006343932841636457 -0.0007730104533627369 -0.005
    endloop
  endfacet
  facet normal 0 0 -1
    outer loop
      vertex 0 0 -0.005
      vertex 0.0007730104533627366 -0.000634393284163646 -0.005
      vertex 0.0007071067811865475 -0.0007071067811865477 -0.005
    endloop
  endfacet
  facet normal 0 0 -1
    outer loop
      vertex 0 0 -0.005
      vertex 0.0008314696123025453 -0.0005555702330196022 -0.005
      vertex 0.0007730104533627366 -0.000634393284163646 -0.005
    endloop
  endfacet
  facet normal 0 0 -1
    outer loop
      vertex 0 0 -0.005
      vertex 0.000881921264348355 -0.0004713967368259979 -0.005
      vertex 0.0008314696123025453 -0.0005555702330196022 -0.005
    endloop
  endfacet
  facet normal 0 0 -1
    outer loop
      vertex 0 0 -0.005
      vertex 0.0009238795325112865 -0.0003826834323650904 -0.005
      vertex 0.000881921264348355 -0.0004713967368259979 -0.005
    endloop
  endfacet
  facet normal 0 0 -1
    outer loop
      vertex 0 0 -0.005
      vertex 0.0009569403357322088 -0.00029028467725446245 -0.005
      vertex 0.0009238795325112865 -0.0003826834323650904 -0.005
    endloop
  endfacet
  facet normal 0 0 -1
    outer loop
      vertex 0 0 -0.005
      vertex 0.0009807852804032304 -0.00019509032201612872 -0.005
      vertex 0.0009569403357322088 -0.00029028467725446245 -0.005
    endloop
  endfacet
  facet normal 0 0 -1
    outer loop
      vertex 0 0 -0.005
      vertex 0.000995184726672197 -9.801714032956052e-05 -0.005
      vertex 0.0009807852804032304 -0.00019509032201612872 -0.005
    endloop
  endfacet
  facet normal 0 0 -1
    outer loop
      vertex 0 0 -0.005
      vertex 0.001 -2.4492935982947063e-19 -0.005
      vertex 0.000995184726672197 -9.801714032956052e-05 -0.005
    endloop
  endfacet
  facet normal 0 0 1
    outer loop
      vertex 0 0 0.005
      vertex 0.001 0.0 0.005
      vertex 0.000995184726672197 9.80171403295606e-05 0.005
    endloop
  endfacet
  facet normal 0 0 1
    outer loop
      vertex 0 0 0.005
      vertex 0.000995184726672197 9.80171403295606e-05 0.005
      vertex 0.0009807852804032304 0.00019509032201612826 0.005
    endloop
  endfacet
  facet normal 0 0 1
    outer loop
      vertex 0 0 0.005
      vertex 0.0009807852804032304 0.00019509032201612826 0.005
      vertex 0.0009569403357322088 0.00029028467725446234 0.005
    endloop
  endfacet
  facet normal 0 0 1
    outer loop
      vertex 0 0 0.005
      vertex 0.0009569403357322088 0.00029028467725446234 0.005
      vertex 0.0009238795325112868 0.0003826834323650898 0.005
    endloop
  endfacet
  facet normal 0 0 1
    outer loop
      vertex 0 0 0.005
      vertex 0.0009238795325112868 0.0003826834323650898 0.005
      vertex 0.0008819212643483551 0.00047139673682599763 0.005
    endloop
  endfacet
  facet normal 0 0 1
    outer loop
      vertex 0 0 0.005
      vertex 0.0008819212643483551 0.00047139673682599763 0.005
      vertex 0.0008314696123025453 0.0005555702330196022 0.005
    endloop
  endfacet
  facet normal 0 0 1
    outer loop
      vertex 0 0 0.005
      vertex 0.0008314696123025453 0.0005555702330196022 0.005
      vertex 0.000773010453362737 0.0006343932841636455 0.005
    endloop
  endfacet
  facet normal 0 0 1
    outer loop
      vertex 0 0 0.005
      vertex 0.000773010453362737 0.0006343932841636455 0.005
      vertex 0.0007071067811865476 0.0007071067811865475 0.005
    endloop
  endfacet
  facet normal 0 0 1
    outer loop
      vertex 0 0 0.005
      vertex 0.0007071067811865476 0.0007071067811865475 0.005
      vertex 0.0006343932841636457 0.0007730104533627369 0.005
    endloop
  endfacet
  facet normal 0 0 1
    outer loop
      vertex 0 0 0.005
      vertex 0.0006343932841636457 0.0007730104533627369 0.005
      vertex 0.0005555702330196023 0.0008314696123025452 0.005
    endloop
  endfacet
  facet normal 0 0 1
    outer loop
      vertex 0 0 0.005
      vertex 0.0005555702330196023 0.0008314696123025452 0.005
      vertex 0.0004713967368259978 0.000881921264348355 0.005
    endloop
  endfacet
  facet normal 0 0 1
    outer loop
      vertex 0 0 0.005
      vertex 0.0004713967368259978 0.000881921264348355 0.005
      vertex 0.00038268343236508984 0.0009238795325112868 0.005
    endloop
  endfacet
  facet normal 0 0 1
    outer loop
      vertex 0 0 0.005
      vertex 0.00038268343236508984 0.0009238795325112868 0.005
      vertex 0.0002902846772544623 0.0009569403357322089 0.005
    endloop
  endfacet
  facet normal 0 0 1
    outer loop
      vertex 0 0 0.005
      vertex 0.0002902846772544623 0.0009569403357322089 0.005
      vertex 0.0001950903220161283 0.0009807852804032304 0.005
    endloop
  endfacet
  facet normal 0 0 1
    outer loop
      vertex 0 0 0.005
      vertex 0.0001950903220161283 0.0009807852804032304 0.005
      vertex 9.801714032956078e-05 0.000995184726672197 0.005
    endloop
  endfacet
  facet normal 0 0 1
    outer loop
      vertex 0 0 0.005
      vertex 9.801714032956078e-05 0.000995184726672197 0.005
      vertex 6.123233995736766e-20 0.001 0.005
    endloop
  endfacet
  facet normal 0 0 1
    outer loop
      vertex 0 0 0.005
      vertex 6.123233995736766e-20 0.001 0.005
      vertex -9.801714032956066e-05 0.000995184726672197 0.005
    endloop
  endfacet
  facet normal 0 0 1
    outer loop
      vertex 0 0 0.005
      vertex -9.801714032956066e-05 0.000995184726672197 0.005
      vertex -0.0001950903220161282 0.0009807852804032304 0.005
    endloop
  endfacet
  facet normal 0 0 1
    outer loop
      vertex 0 0 0.005
      vertex -0.0001950903220161282 0.0009807852804032304 0.005
      vertex -0.00029028467725446223 0.0009569403357322089 0.005
    endloop
  endfacet
  facet normal 0 0 1
    outer loop
      vertex 0 0 0.005
      vertex -0.00029028467725446223 0.0009569403357322089 0.005
      vertex -0.00038268343236508973 0.0009238795325112868 0.005
    endloop
  endfacet
  facet normal 0 0 1
    outer loop
      vertex 0 0 0.005
      vertex -0.00038268343236508973 0.0009238795325112868 0.005
      vertex -0.0004713967368259977 0.0008819212643483551 0.005
    endloop
  endfacet
  facet normal 0 0 1
    outer loop
      vertex 0 0 0.005
      vertex -0.0004713967368259977 0.0008819212643483551 0.005
      vertex -0.000555570233019602 0.0008314696123025455 0.005
    endloop
  endfacet
  facet normal 0 0 1
    outer loop
      vertex 0 0 0.005
      vertex -0.000555570233019602 0.0008314696123025455 0.005
      vertex -0.0006343932841636453 0.0007730104533627371 0.005
    endloop
  endfacet
  facet normal 0 0 1
    outer loop
      vertex 0 0 0.005
      vertex -0.0006343932841636453 0.0007730104533627371 0.005
      vertex -0.0007071067811865475 0.0007071067811865476 0.005
    endloop
  endfacet
  facet normal 0 0 1
    outer loop
      vertex 0 0 0.005
      vertex -0.0007071067811865475 0.0007071067811865476 0.005
      vertex -0.000773010453362737 0.0006343932841636455 0.005
    endloop
  endfacet
  facet normal 0 0 1
    outer loop
      vertex 0 0 0.005
      vertex -0.000773010453362737 0.0006343932841636455 0.005
      vertex -0.0008314696123025454 0.0005555702330196022 0.005
    endloop
  endfacet
  facet normal 0 0 1
    outer loop
      vertex 0 0 0.005
      vertex -0.0008314696123025454 0.0005555702330196022 0.005
      vertex -0.000881921264348355 0.0004713967368259978 0.005
    endloop
  endfacet
  facet normal 0 0 1
    outer loop
      vertex 0 0 0.005
      vertex -0.000881921264348355 0.0004713967368259978 0.005
      vertex -0.0009238795325112868 0.00038268343236508984 0.005
    endloop
  endfacet
  facet normal 0 0 1
    outer loop
      vertex 0 0 0.005
      vertex -0.0009238795325112868 0.00038268343236508984 0.005
      vertex -0.0009569403357322088 0.00029028467725446234 0.005
    endloop
  endfacet
  facet normal 0 0 1
    outer loop
      vertex 0 0 0.005
      vertex -0.0009569403357322088 0.00029028467725446234 0.005
      vertex -0.0009807852804032304 0.00019509032201612858 0.005
    endloop
  endfacet
  facet normal 0 0 1
    outer loop
      vertex 0 0 0.005
      vertex -0.0009807852804032304 0.00019509032201612858 0.005
      vertex -0.000995184726672197 9.801714032956084e-05 0.005
    endloop
  endfacet
  facet normal 0 0 1
    outer loop
      vertex 0 0 0.005
      vertex -0.000995184726672197 9.801714032956084e-05 0.005
      vertex -0.001 1.2246467991473531e-19 0.005
    endloop
  endfacet
  facet normal 0 0 1
    outer loop
      vertex 0 0 0.005
      vertex -0.001 1.2246467991473531e-19 0.005
      vertex -0.000995184726672197 -9.801714032956059e-05 0.005
    endloop
  endfacet
  facet normal 0 0 1
    outer loop
      vertex 0 0 0.005
      vertex -0.000995184726672197 -9.801714032956059e-05 0.005
      vertex -0.0009807852804032304 -0.00019509032201612837 0.005
    endloop
  endfacet
  facet normal 0 0 1
    outer loop
      vertex 0 0 0.005
      vertex -0.0009807852804032304 -0.00019509032201612837 0.005
      vertex -0.0009569403357322089 -0.0002902846772544622 0.005
    endloop
  endfacet
  facet normal 0 0 1
    outer loop
      vertex 0 0 0.005
      vertex -0.0009569403357322089 -0.0002902846772544622 0.005
      vertex -0.0009238795325112868 -0.0003826834323650897 0.005
    endloop
  endfacet
  facet normal 0 0 1
    outer loop
      vertex 0 0 0.005
      vertex -0.0009238795325112868 -0.0003826834323650897 0.005
      vertex -0.0008819212643483551 -0.00047139673682599763 0.005
    endloop
  endfacet
  facet normal 0 0 1
    outer loop
      vertex 0 0 0.005
      vertex -0.0008819212643483551 -0.00047139673682599763 0.005
      vertex -0.0008314696123025455 -0.000555570233019602 0.005
    endloop
  endfacet
  facet normal 0 0 1
    outer loop
      vertex 0 0 0.005
      vertex -0.0008314696123025455 -0.000555570233019602 0.005
      vertex -0.0007730104533627371 -0.0006343932841636453 0.005
    endloop
  endfacet
  facet normal 0 0 1
    outer loop
      vertex 0 0 0.005
      vertex -0.0007730104533627371 -0.0006343932841636453 0.005
      vertex -0.0007071067811865477 -0.0007071067811865475 0.005
    endloop
  endfacet
  facet normal 0 0 1
    outer loop
      vertex 0 0 0.005
      vertex -0.0007071067811865477 -0.0007071067811865475 0.005
      vertex -0.000634393284163646 -0.0007730104533627366 0.005
    endloop
  endfacet
  facet normal 0 0 1
    outer loop
      vertex 0 0 0.005
      vertex -0.000634393284163646 -0.0007730104533627366 0.005
      vertex -0.0005555702330196022 -0.0008314696123025453 0.005
    endloop
  endfacet
  facet normal 0 0 1
    outer loop
      vertex 0 0 0.005
      vertex -0.0005555702330196022 -0.0008314696123025453 0.005
      vertex -0.00047139673682599785 -0.000881921264348355 0.005
    endloop
  endfacet
  facet normal 0 0 1
    outer loop
      vertex 0 0 0.005
      vertex -0.00047139673682599785 -0.000881921264348355 0.005
      vertex -0.0003826834323650903 -0.0009238795325112865 0.005
    endloop
  endfacet
  facet normal 0 0 1
    outer loop
      vertex 0 0 0.005
      vertex -0.0003826834323650903 -0.0009238795325112865 0.005
      vertex -0.0002902846772544624 -0.0009569403357322088 0.005
    endloop
  endfacet
  facet normal 0 0 1
    outer loop
      vertex 0 0 0.005
      vertex -0.0002902846772544624 -0.0009569403357322088 0.005
      vertex -0.00019509032201612866 -0.0009807852804032304 0.005
    endloop
  endfacet
  facet normal 0 0 1
    outer loop
      vertex 0 0 0.005
      vertex -0.00019509032201612866 -0.0009807852804032304 0.005
      vertex -9.801714032956045e-05 -0.000995184726672197 0.005
    endloop
  endfacet
  facet normal 0 0 1
    outer loop
      vertex 0 0 0.005
      vertex -9.801714032956045e-05 -0.000995184726672197 0.005
      vertex -1.8369701987210298e-19 -0.001 0.005
    endloop
  endfacet
  facet normal 0 0 1
    outer loop
      vertex 0 0 0.005
      vertex -1.8369701987210298e-19 -0.001 0.005
      vertex 9.801714032956009e-05 -0.000995184726672197 0.005
    endloop
  endfacet
  facet normal 0 0 1
    outer loop
      vertex 0 0 0.005
      vertex 9.801714032956009e-05 -0.000995184726672197 0.005
      vertex 0.00019509032201612828 -0.0009807852804032304 0.005
    endloop
  endfacet
  facet normal 0 0 1
    outer loop
      vertex 0 0 0.005
      vertex 0.00019509032201612828 -0.0009807852804032304 0.005
      vertex 0.0002902846772544621 -0.0009569403357322089 0.005
    endloop
  endfacet
  facet normal 0 0 1
    outer loop
      vertex 0 0 0.005
      vertex 0.0002902846772544621 -0.0009569403357322089 0.005
      vertex 0.00038268343236509 -0.0009238795325112866 0.005
    endloop
  endfacet
  facet normal 0 0 1
    outer loop
      vertex 0 0 0.005
      vertex 0.00038268343236509 -0.0009238795325112866 0.005
      vertex 0.0004713967368259976 -0.0008819212643483551 0.005
    endloop
  endfacet
  facet normal 0 0 1
    outer loop
      vertex 0 0 0.005
      vertex 0.0004713967368259976 -0.0008819212643483551 0.005
      vertex 0.0005555702330196019 -0.0008314696123025456 0.005
    endloop
  endfacet
  facet normal 0 0 1
    outer loop
      vertex 0 0 0.005
      vertex 0.0005555702330196019 -0.0008314696123025456 0.005
      vertex 0.0006343932841636457 -0.0007730104533627369 0.005
    endloop
  endfacet
  facet normal 0 0 1
    outer loop
      vertex 0 0 0.005
      vertex 0.0006343932841636457 -0.0007730104533627369 0.005
      vertex 0.0007071067811865475 -0.0007071067811865477 0.005
    endloop
  endfacet
  facet normal 0 0 1
    outer loop
      vertex 0 0 0.005
      vertex 0.0007071067811865475 -0.0007071067811865477 0.005
      vertex 0.0007730104533627366 -0.000634393284163646 0.005
    endloop
  endfacet
  facet normal 0 0 1
    outer loop
      vertex 0 0 0.005
      vertex 0.0007730104533627366 -0.000634393284163646 0.005
      vertex 0.0008314696123025453 -0.0005555702330196022 0.005
    endloop
  endfacet
  facet normal 0 0 1
    outer loop
      vertex 0 0 0.005
      vertex 0.0008314696123025453 -0.0005555702330196022 0.005
      vertex 0.000881921264348355 -0.0004713967368259979 0.005
    endloop
  endfacet
  facet normal 0 0 1
    outer loop
      vertex 0 0 0.005
      vertex 0.000881921264348355 -0.0004713967368259979 0.005
      vertex 0.0009238795325112865 -0.0003826834323650904 0.005
    endloop
  endfacet
  facet normal 0 0 1
    outer loop
      vertex 0 0 0.005
      vertex 0.0009238795325112865 -0.0003826834323650904 0.005
      vertex 0.0009569403357322088 -0.00029028467725446245 0.005
    endloop
  endfacet
  facet normal 0 0 1
    outer loop
      vertex 0 0 0.005
      vertex 0.0009569403357322088 -0.00029028467725446245 0.005
      vertex 0.0009807852804032304 -0.00019509032201612872 0.005
    endloop
  endfacet
  facet normal 0 0 1
    outer loop
      vertex 0 0 0.005
      vertex 0.0009807852804032304 -0.00019509032201612872 0.005
      vertex 0.000995184726672197 -9.801714032956052e-05 0.005
    endloop
  endfacet
  facet normal 0 0 1
    outer loop
      vertex 0 0 0.005
      vertex 0.000995184726672197 -9.801714032956052e-05 0.005
      vertex 0.001 -2.4492935982947063e-19 0.005
    endloop
  endfacet
endsolid cylinder
