solid cylinder
  facet normal 0.9987954562051724 0.04906767432741814 0.0
    outer loop
      vertex 0.05 0.0 -0.25
      vertex 0.049759236333609846 0.0049008570164780305 -0.25
      vertex 0.049759236333609846 0.0049008570164780305 0.25
    endloop
  endfacet
  facet normal 0.9987954562051724 0.04906767432741814 0.0
    outer loop
      vertex 0.05 0.0 -0.25
      vertex 0.049759236333609846 0.0049008570164780305 0.25
      vertex 0.05 0.0 0.25
    endloop
  endfacet
  facet normal 0.9891765099647811 0.14673047445536186 0.0
    outer loop
      vertex 0.049759236333609846 0.0049008570164780305 -0.25
      vertex 0.049039264020161524 0.009754516100806413 -0.25
      vertex 0.049039264020161524 0.009754516100806413 0.25
    endloop
  endfacet
  facet normal 0.9891765099647811 0.14673047445536186 0.0
    outer loop
      vertex 0.049759236333609846 0.0049008570164780305 -0.25
      vertex 0.049039264020161524 0.009754516100806413 0.25
      vertex 0.049759236333609846 0.0049008570164780305 0.25
    endloop
  endfacet
  facet normal 0.970031253194544 0.24298017990326445 0.0
    outer loop
      vertex 0.049039264020161524 0.009754516100806413 -0.25
      vertex 0.04784701678661044 0.014514233862723117 -0.25
      vertex 0.04784701678661044 0.014514233862723117 0.25
    endloop
  endfacet
  facet normal 0.970031253194544 0.24298017990326445 0.0
    outer loop
      vertex 0.049039264020161524 0.009754516100806413 -0.25
      vertex 0.04784701678661044 0.014514233862723117 0.25
      vertex 0.049039264020161524 0.009754516100806413 0.25
    endloop
  endfacet
  facet normal 0.9415440651830211 0.33688985339221905 0.0
    outer loop
      vertex 0.04784701678661044 0.014514233862723117 -0.25
      vertex 0.04619397662556434 0.01913417161825449 -0.25
      vertex 0.04619397662556434 0.01913417161825449 0.25
    endloop
  endfacet
  facet normal 0.9415440651830211 0.33688985339221905 0.0
    outer loop
      vertex 0.04784701678661044 0.014514233862723117 -0.25
      vertex 0.04619397662556434 0.01913417161825449 0.25
      vertex 0.04784701678661044 0.014514233862723117 0.25
    endloop
  endfacet
  facet normal 0.9039892931234434 0.4275550934302821 0.0
    outer loop
      vertex 0.04619397662556434 0.01913417161825449 -0.25
      vertex 0.044096063217417755 0.023569836841299884 -0.25
      vertex 0.044096063217417755 0.023569836841299884 0.25
    endloop
  endfacet
  facet normal 0.9039892931234434 0.4275550934302821 0.0
    outer loop
      vertex 0.04619397662556434 0.01913417161825449 -0.25
      vertex 0.044096063217417755 0.023569836841299884 0.25
      vertex 0.04619397662556434 0.01913417161825449 0.25
    endloop
  endfacet
  facet normal 0.8577286100002718 0.5141027441932222 0.0
    outer loop
      vertex 0.044096063217417755 0.023569836841299884 -0.25
      vertex 0.041573480615127265 0.02777851165098011 -0.25
      vertex 0.041573480615127265 0.02777851165098011 0.25
    endloop
  endfacet
  facet normal 0.8577286100002718 0.5141027441932222 0.0
    outer loop
      vertex 0.044096063217417755 0.023569836841299884 -0.25
      vertex 0.041573480615127265 0.02777851165098011 0.25
      vertex 0.044096063217417755 0.023569836841299884 0.25
    endloop
  endfacet
  facet normal 0.8032075314806454 0.5956993044924327 0.0
    outer loop
      vertex 0.041573480615127265 0.02777851165098011 -0.25
      vertex 0.03865052266813685 0.03171966420818228 -0.25
      vertex 0.03865052266813685 0.03171966420818228 0.25
    endloop
  endfacet
  facet normal 0.8032075314806454 0.5956993044924327 0.0
    outer loop
      vertex 0.041573480615127265 0.02777851165098011 -0.25
      vertex 0.03865052266813685 0.03171966420818228 0.25
      vertex 0.041573480615127265 0.02777851165098011 0.25
    endloop
  endfacet
  facet normal 0.740951125354959 0.6715589548470183 0.0
    outer loop
      vertex 0.03865052266813685 0.03171966420818228 -0.25
      vertex 0.03535533905932738 0.035355339059327376 -0.25
      vertex 0.03535533905932738 0.035355339059327376 0.25
    endloop
  endfacet
  facet normal 0.740951125354959 0.6715589548470183 0.0
    outer loop
      vertex 0.03865052266813685 0.03171966420818228 -0.25
      vertex 0.03535533905932738 0.035355339059327376 0.25
      vertex 0.03865052266813685 0.03171966420818228 0.25
    endloop
  endfacet
  facet normal 0.6715589548470178 0.7409511253549598 0.0
    outer loop
      vertex 0.03535533905932738 0.035355339059327376 -0.25
      vertex 0.03171966420818228 0.038650522668136844 -0.25
      vertex 0.03171966420818228 0.038650522668136844 0.25
    endloop
  endfacet
  facet normal 0.6715589548470178 0.7409511253549598 0.0
    outer loop
      vertex 0.03535533905932738 0.035355339059327376 -0.25
      vertex 0.03171966420818228 0.038650522668136844 0.25
      vertex 0.03535533905932738 0.035355339059327376 0.25
    endloop
  endfacet
  facet normal 0.5956993044924335 0.8032075314806449 0.0
    outer loop
      vertex 0.03171966420818228 0.038650522668136844 -0.25
      vertex 0.027778511650980116 0.04157348061512726 -0.25
      vertex 0.027778511650980116 0.04157348061512726 0.25
    endloop
  endfacet
  facet normal 0.5956993044924335 0.8032075314806449 0.0
    outer loop
      vertex 0.03171966420818228 0.038650522668136844 -0.25
      vertex 0.027778511650980116 0.04157348061512726 0.25
      vertex 0.03171966420818228 0.038650522668136844 0.25
    endloop
  endfacet
  facet normal 0.5141027441932222 0.8577286100002718 0.0
    outer loop
      vertex 0.027778511650980116 0.04157348061512726 -0.25
      vertex 0.02356983684129989 0.04409606321741775 -0.25
      vertex 0.02356983684129989 0.04409606321741775 0.25
    endloop
  endfacet
  facet normal 0.5141027441932222 0.8577286100002718 0.0
    outer loop
      vertex 0.027778511650980116 0.04157348061512726 -0.25
      vertex 0.02356983684129989 0.04409606321741775 0.25
      vertex 0.027778511650980116 0.04157348061512726 0.25
    endloop
  endfacet
  facet normal 0.4275550934302829 0.9039892931234428 0.0
    outer loop
      vertex 0.02356983684129989 0.04409606321741775 -0.25
      vertex 0.019134171618254495 0.04619397662556434 -0.25
      vertex 0.019134171618254495 0.04619397662556434 0.25
    endloop
  endfacet
  facet normal 0.4275550934302829 0.9039892931234428 0.0
    outer loop
      vertex 0.02356983684129989 0.04409606321741775 -0.25
      vertex 0.019134171618254495 0.04619397662556434 0.25
      vertex 0.02356983684129989 0.04409606321741775 0.25
    endloop
  endfacet
  facet normal 0.33688985339222 0.9415440651830208 0.0
    outer loop
      vertex 0.019134171618254495 0.04619397662556434 -0.25
      vertex 0.014514233862723115 0.04784701678661045 -0.25
      vertex 0.014514233862723115 0.04784701678661045 0.25
    endloop
  endfacet
  facet normal 0.33688985339222 0.9415440651830208 0.0
    outer loop
      vertex 0.019134171618254495 0.04619397662556434 -0.25
      vertex 0.014514233862723115 0.04784701678661045 0.25
      vertex 0.019134171618254495 0.04619397662556434 0.25
    endloop
  endfacet
  facet normal 0.2429801799032634 0.9700312531945443 0.0
    outer loop
      vertex 0.014514233862723115 0.04784701678661045 -0.25
      vertex 0.009754516100806417 0.049039264020161524 -0.25
      vertex 0.009754516100806417 0.049039264020161524 0.25
    endloop
  endfacet
  facet normal 0.2429801799032634 0.9700312531945443 0.0
    outer loop
      vertex 0.014514233862723115 0.04784701678661045 -0.25
      vertex 0.009754516100806417 0.049039264020161524 0.25
      vertex 0.014514233862723115 0.04784701678661045 0.25
    endloop
  endfacet
  facet normal 0.146730474455362 0.9891765099647811 0.0
    outer loop
      vertex 0.009754516100806417 0.049039264020161524 -0.25
      vertex 0.004900857016478039 0.049759236333609846 -0.25
      vertex 0.004900857016478039 0.049759236333609846 0.25
    endloop
  endfacet
  facet normal 0.146730474455362 0.9891765099647811 0.0
    outer loop
      vertex 0.009754516100806417 0.049039264020161524 -0.25
      vertex 0.004900857016478039 0.049759236333609846 0.25
      vertex 0.009754516100806417 0.049039264020161524 0.25
    endloop
  endfacet
  facet normal 0.04906767432741809 0.9987954562051724 0.0
    outer loop
      vertex 0.004900857016478039 0.049759236333609846 -0.25
      vertex 3.061616997868383e-18 0.05 -0.25
      vertex 3.061616997868383e-18 0.05 0.25
    endloop
  endfacet
  facet normal 0.04906767432741809 0.9987954562051724 0.0
    outer loop
      vertex 0.004900857016478039 0.049759236333609846 -0.25
      vertex 3.061616997868383e-18 0.05 0.25
      vertex 0.004900857016478039 0.049759236333609846 0.25
    endloop
  endfacet
  facet normal -0.049067674327418084 0.9987954562051724 0.0
    outer loop
      vertex 3.061616997868383e-18 0.05 -0.25
      vertex -0.004900857016478033 0.049759236333609846 -0.25
      vertex -0.004900857016478033 0.049759236333609846 0.25
    endloop
  endfacet
  facet normal -0.049067674327418084 0.9987954562051724 0.0
    outer loop
      vertex 3.061616997868383e-18 0.05 -0.25
      vertex -0.004900857016478033 0.049759236333609846 0.25
      vertex 3.061616997868383e-18 0.05 0.25
    endloop
  endfacet
  facet normal -0.146730474455362 0.9891765099647809 0.0
    outer loop
      vertex -0.004900857016478033 0.049759236333609846 -0.25
      vertex -0.00975451610080641 0.049039264020161524 -0.25
      vertex -0.00975451610080641 0.049039264020161524 0.25
    endloop
  endfacet
  facet normal -0.146730474455362 0.9891765099647809 0.0
    outer loop
      vertex -0.004900857016478033 0.049759236333609846 -0.25
      vertex -0.00975451610080641 0.049039264020161524 0.25
      vertex -0.004900857016478033 0.049759236333609846 0.25
    endloop
  endfacet
  facet normal -0.24298017990326323 0.9700312531945443 0.0
    outer loop
      vertex -0.00975451610080641 0.049039264020161524 -0.25
      vertex -0.014514233862723111 0.04784701678661045 -0.25
      vertex -0.014514233862723111 0.04784701678661045 0.25
    endloop
  endfacet
  facet normal -0.24298017990326323 0.9700312531945443 0.0
    outer loop
      vertex -0.00975451610080641 0.049039264020161524 -0.25
      vertex -0.014514233862723111 0.04784701678661045 0.25
      vertex -0.00975451610080641 0.049039264020161524 0.25
    endloop
  endfacet
  facet normal -0.33688985339222016 0.9415440651830206 0.0
    outer loop
      vertex -0.014514233862723111 0.04784701678661045 -0.25
      vertex -0.019134171618254488 0.04619397662556434 -0.25
      vertex -0.019134171618254488 0.04619397662556434 0.25
    endloop
  endfacet
  facet normal -0.33688985339222016 0.9415440651830206 0.0
    outer loop
      vertex -0.014514233862723111 0.04784701678661045 -0.25
      vertex -0.019134171618254488 0.04619397662556434 0.25
      vertex -0.014514233862723111 0.04784701678661045 0.25
    endloop
  endfacet
  facet normal -0.42755509343028153 0.9039892931234436 0.0
    outer loop
      vertex -0.019134171618254488 0.04619397662556434 -0.25
      vertex -0.023569836841299888 0.044096063217417755 -0.25
      vertex -0.023569836841299888 0.044096063217417755 0.25
    endloop
  endfacet
  facet normal -0.42755509343028153 0.9039892931234436 0.0
    outer loop
      vertex -0.019134171618254488 0.04619397662556434 -0.25
      vertex -0.023569836841299888 0.044096063217417755 0.25
      vertex -0.019134171618254488 0.04619397662556434 0.25
    endloop
  endfacet
  facet normal -0.5141027441932214 0.8577286100002722 0.0
    outer loop
      vertex -0.023569836841299888 0.044096063217417755 -0.25
      vertex -0.0277785116509801 0.04157348061512728 -0.25
      vertex -0.0277785116509801 0.04157348061512728 0.25
    endloop
  endfacet
  facet normal -0.5141027441932214 0.8577286100002722 0.0
    outer loop
      vertex -0.023569836841299888 0.044096063217417755 -0.25
      vertex -0.0277785116509801 0.04157348061512728 0.25
      vertex -0.023569836841299888 0.044096063217417755 0.25
    endloop
  endfacet
  facet normal -0.595699304492434 0.8032075314806445 0.0
    outer loop
      vertex -0.0277785116509801 0.04157348061512728 -0.25
      vertex -0.031719664208182265 0.03865052266813686 -0.25
      vertex -0.031719664208182265 0.03865052266813686 0.25
    endloop
  endfacet
  facet normal -0.595699304492434 0.8032075314806445 0.0
    outer loop
      vertex -0.0277785116509801 0.04157348061512728 -0.25
      vertex -0.031719664208182265 0.03865052266813686 0.25
      vertex -0.0277785116509801 0.04157348061512728 0.25
    endloop
  endfacet
  facet normal -0.6715589548470179 0.7409511253549598 0.0
    outer loop
      vertex -0.031719664208182265 0.03865052266813686 -0.25
      vertex -0.035355339059327376 0.03535533905932738 -0.25
      vertex -0.035355339059327376 0.03535533905932738 0.25
    endloop
  endfacet
  facet normal -0.6715589548470179 0.7409511253549598 0.0
    outer loop
      vertex -0.031719664208182265 0.03865052266813686 -0.25
      vertex -0.035355339059327376 0.03535533905932738 0.25
      vertex -0.031719664208182265 0.03865052266813686 0.25
    endloop
  endfacet
  facet normal -0.740951125354959 0.6715589548470184 0.0
    outer loop
      vertex -0.035355339059327376 0.03535533905932738 -0.25
      vertex -0.03865052266813685 0.03171966420818228 -0.25
      vertex -0.03865052266813685 0.03171966420818228 0.25
    endloop
  endfacet
  facet normal -0.740951125354959 0.6715589548470184 0.0
    outer loop
      vertex -0.035355339059327376 0.03535533905932738 -0.25
      vertex -0.03865052266813685 0.03171966420818228 0.25
      vertex -0.035355339059327376 0.03535533905932738 0.25
    endloop
  endfacet
  facet normal -0.8032075314806446 0.5956993044924336 0.0
    outer loop
      vertex -0.03865052266813685 0.03171966420818228 -0.25
      vertex -0.04157348061512727 0.02777851165098011 -0.25
      vertex -0.04157348061512727 0.02777851165098011 0.25
    endloop
  endfacet
  facet normal -0.8032075314806446 0.5956993044924336 0.0
    outer loop
      vertex -0.03865052266813685 0.03171966420818228 -0.25
      vertex -0.04157348061512727 0.02777851165098011 0.25
      vertex -0.03865052266813685 0.03171966420818228 0.25
    endloop
  endfacet
  facet normal -0.8577286100002727 0.5141027441932208 0.0
    outer loop
      vertex -0.04157348061512727 0.02777851165098011 -0.25
      vertex -0.04409606321741775 0.02356983684129989 -0.25
      vertex -0.04409606321741775 0.02356983684129989 0.25
    endloop
  endfacet
  facet normal -0.8577286100002727 0.5141027441932208 0.0
    outer loop
      vertex -0.04157348061512727 0.02777851165098011 -0.25
      vertex -0.04409606321741775 0.02356983684129989 0.25
      vertex -0.04157348061512727 0.02777851165098011 0.25
    endloop
  endfacet
  facet normal -0.9039892931234428 0.4275550934302829 0.0
    outer loop
      vertex -0.04409606321741775 0.02356983684129989 -0.25
      vertex -0.04619397662556434 0.019134171618254495 -0.25
      vertex -0.04619397662556434 0.019134171618254495 0.25
    endloop
  endfacet
  facet normal -0.9039892931234428 0.4275550934302829 0.0
    outer loop
      vertex -0.04409606321741775 0.02356983684129989 -0.25
      vertex -0.04619397662556434 0.019134171618254495 0.25
      vertex -0.04409606321741775 0.02356983684129989 0.25
    endloop
  endfacet
  facet normal -0.9415440651830214 0.3368898533922189 0.0
    outer loop
      vertex -0.04619397662556434 0.019134171618254495 -0.25
      vertex -0.04784701678661044 0.014514233862723117 -0.25
      vertex -0.04784701678661044 0.014514233862723117 0.25
    endloop
  endfacet
  facet normal -0.9415440651830214 0.3368898533922189 0.0
    outer loop
      vertex -0.04619397662556434 0.019134171618254495 -0.25
      vertex -0.04784701678661044 0.014514233862723117 0.25
      vertex -0.04619397662556434 0.019134171618254495 0.25
    endloop
  endfacet
  facet normal -0.9700312531945436 0.2429801799032653 0.0
    outer loop
      vertex -0.04784701678661044 0.014514233862723117 -0.25
      vertex -0.049039264020161524 0.00975451610080643 -0.25
      vertex -0.049039264020161524 0.00975451610080643 0.25
    endloop
  endfacet
  facet normal -0.9700312531945436 0.2429801799032653 0.0
    outer loop
      vertex -0.04784701678661044 0.014514233862723117 -0.25
      vertex -0.049039264020161524 0.00975451610080643 0.25
      vertex -0.04784701678661044 0.014514233862723117 0.25
    endloop
  endfacet
  facet normal -0.9891765099647811 0.1467304744553617 0.0
    outer loop
      vertex -0.049039264020161524 0.00975451610080643 -0.25
      vertex -0.049759236333609846 0.004900857016478043 -0.25
      vertex -0.049759236333609846 0.004900857016478043 0.25
    endloop
  endfacet
  facet normal -0.9891765099647811 0.1467304744553617 0.0
    outer loop
      vertex -0.049039264020161524 0.00975451610080643 -0.25
      vertex -0.049759236333609846 0.004900857016478043 0.25
      vertex -0.049039264020161524 0.00975451610080643 0.25
    endloop
  endfacet
  facet normal -0.9987954562051724 0.049067674327418084 0.0
    outer loop
      vertex -0.049759236333609846 0.004900857016478043 -0.25
      vertex -0.05 6.123233995736766e-18 -0.25
      vertex -0.05 6.123233995736766e-18 0.25
    endloop
  endfacet
  facet normal -0.9987954562051724 0.049067674327418084 0.0
    outer loop
      vertex -0.049759236333609846 0.004900857016478043 -0.25
      vertex -0.05 6.123233995736766e-18 0.25
      vertex -0.049759236333609846 0.004900857016478043 0.25
    endloop
  endfacet
  facet normal -0.9987954562051724 -0.04906767432741809 0.0
    outer loop
      vertex -0.05 6.123233995736766e-18 -0.25
      vertex -0.049759236333609846 -0.00490085701647803 -0.25
      vertex -0.049759236333609846 -0.00490085701647803 0.25
    endloop
  endfacet
  facet normal -0.9987954562051724 -0.04906767432741809 0.0
    outer loop
      vertex -0.05 6.123233995736766e-18 -0.25
      vertex -0.049759236333609846 -0.00490085701647803 0.25
      vertex -0.05 6.123233995736766e-18 0.25
    endloop
  endfacet
  facet normal -0.9891765099647809 -0.14673047445536164 0.0
    outer loop
      vertex -0.049759236333609846 -0.00490085701647803 -0.25
      vertex -0.049039264020161524 -0.009754516100806418 -0.25
      vertex -0.049039264020161524 -0.009754516100806418 0.25
    endloop
  endfacet
  facet normal -0.9891765099647809 -0.14673047445536164 0.0
    outer loop
      vertex -0.049759236333609846 -0.00490085701647803 -0.25
      vertex -0.049039264020161524 -0.009754516100806418 0.25
      vertex -0.049759236333609846 -0.00490085701647803 0.25
    endloop
  endfacet
  facet normal -0.9700312531945441 -0.2429801799032637 0.0
    outer loop
      vertex -0.049039264020161524 -0.009754516100806418 -0.25
      vertex -0.04784701678661045 -0.01451423386272311 -0.25
      vertex -0.04784701678661045 -0.01451423386272311 0.25
    endloop
  endfacet
  facet normal -0.9700312531945441 -0.2429801799032637 0.0
    outer loop
      vertex -0.049039264020161524 -0.009754516100806418 -0.25
      vertex -0.04784701678661045 -0.01451423386272311 0.25
      vertex -0.049039264020161524 -0.009754516100806418 0.25
    endloop
  endfacet
  facet normal -0.9415440651830206 -0.3368898533922203 0.0
    outer loop
      vertex -0.04784701678661045 -0.01451423386272311 -0.25
      vertex -0.04619397662556434 -0.019134171618254484 -0.25
      vertex -0.04619397662556434 -0.019134171618254484 0.25
    endloop
  endfacet
  facet normal -0.9415440651830206 -0.3368898533922203 0.0
    outer loop
      vertex -0.04784701678661045 -0.01451423386272311 -0.25
      vertex -0.04619397662556434 -0.019134171618254484 0.25
      vertex -0.04784701678661045 -0.01451423386272311 0.25
    endloop
  endfacet
  facet normal -0.9039892931234436 -0.42755509343028153 0.0
    outer loop
      vertex -0.04619397662556434 -0.019134171618254484 -0.25
      vertex -0.044096063217417755 -0.023569836841299884 -0.25
      vertex -0.044096063217417755 -0.023569836841299884 0.25
    endloop
  endfacet
  facet normal -0.9039892931234436 -0.42755509343028153 0.0
    outer loop
      vertex -0.04619397662556434 -0.019134171618254484 -0.25
      vertex -0.044096063217417755 -0.023569836841299884 0.25
      vertex -0.04619397662556434 -0.019134171618254484 0.25
    endloop
  endfacet
  facet normal -0.8577286100002723 -0.5141027441932211 0.0
    outer loop
      vertex -0.044096063217417755 -0.023569836841299884 -0.25
      vertex -0.04157348061512728 -0.0277785116509801 -0.25
      vertex -0.04157348061512728 -0.0277785116509801 0.25
    endloop
  endfacet
  facet normal -0.8577286100002723 -0.5141027441932211 0.0
    outer loop
      vertex -0.044096063217417755 -0.023569836841299884 -0.25
      vertex -0.04157348061512728 -0.0277785116509801 0.25
      vertex -0.044096063217417755 -0.023569836841299884 0.25
    endloop
  endfacet
  facet normal -0.8032075314806445 -0.595699304492434 0.0
    outer loop
      vertex -0.04157348061512728 -0.0277785116509801 -0.25
      vertex -0.03865052266813686 -0.031719664208182265 -0.25
      vertex -0.03865052266813686 -0.031719664208182265 0.25
    endloop
  endfacet
  facet normal -0.8032075314806445 -0.595699304492434 0.0
    outer loop
      vertex -0.04157348061512728 -0.0277785116509801 -0.25
      vertex -0.03865052266813686 -0.031719664208182265 0.25
      vertex -0.04157348061512728 -0.0277785116509801 0.25
    endloop
  endfacet
  facet normal -0.7409511253549598 -0.6715589548470179 0.0
    outer loop
      vertex -0.03865052266813686 -0.031719664208182265 -0.25
      vertex -0.03535533905932738 -0.035355339059327376 -0.25
      vertex -0.03535533905932738 -0.035355339059327376 0.25
    endloop
  endfacet
  facet normal -0.7409511253549598 -0.6715589548470179 0.0
    outer loop
      vertex -0.03865052266813686 -0.031719664208182265 -0.25
      vertex -0.03535533905932738 -0.035355339059327376 0.25
      vertex -0.03865052266813686 -0.031719664208182265 0.25
    endloop
  endfacet
  facet normal -0.6715589548470191 -0.7409511253549586 0.0
    outer loop
      vertex -0.03535533905932738 -0.035355339059327376 -0.25
      vertex -0.0317196642081823 -0.03865052266813684 -0.25
      vertex -0.0317196642081823 -0.03865052266813684 0.25
    endloop
  endfacet
  facet normal -0.6715589548470191 -0.7409511253549586 0.0
    outer loop
      vertex -0.03535533905932738 -0.035355339059327376 -0.25
      vertex -0.0317196642081823 -0.03865052266813684 0.25
      vertex -0.03535533905932738 -0.035355339059327376 0.25
    endloop
  endfacet
  facet normal -0.5956993044924326 -0.8032075314806456 0.0
    outer loop
      vertex -0.0317196642081823 -0.03865052266813684 -0.25
      vertex -0.02777851165098011 -0.041573480615127265 -0.25
      vertex -0.02777851165098011 -0.041573480615127265 0.25
    endloop
  endfacet
  facet normal -0.5956993044924326 -0.8032075314806456 0.0
    outer loop
      vertex -0.0317196642081823 -0.03865052266813684 -0.25
      vertex -0.02777851165098011 -0.041573480615127265 0.25
      vertex -0.0317196642081823 -0.03865052266813684 0.25
    endloop
  endfacet
  facet normal -0.5141027441932221 -0.8577286100002718 0.0
    outer loop
      vertex -0.02777851165098011 -0.041573480615127265 -0.25
      vertex -0.023569836841299895 -0.04409606321741775 -0.25
      vertex -0.023569836841299895 -0.04409606321741775 0.25
    endloop
  endfacet
  facet normal -0.5141027441932221 -0.8577286100002718 0.0
    outer loop
      vertex -0.02777851165098011 -0.041573480615127265 -0.25
      vertex -0.023569836841299895 -0.04409606321741775 0.25
      vertex -0.02777851165098011 -0.041573480615127265 0.25
    endloop
  endfacet
  facet normal -0.4275550934302823 -0.9039892931234432 0.0
    outer loop
      vertex -0.023569836841299895 -0.04409606321741775 -0.25
      vertex -0.01913417161825452 -0.04619397662556433 -0.25
      vertex -0.01913417161825452 -0.04619397662556433 0.25
    endloop
  endfacet
  facet normal -0.4275550934302823 -0.9039892931234432 0.0
    outer loop
      vertex -0.023569836841299895 -0.04409606321741775 -0.25
      vertex -0.01913417161825452 -0.04619397662556433 0.25
      vertex -0.023569836841299895 -0.04409606321741775 0.25
    endloop
  endfacet
  facet normal -0.33688985339222005 -0.9415440651830209 0.0
    outer loop
      vertex -0.01913417161825452 -0.04619397662556433 -0.25
      vertex -0.01451423386272312 -0.04784701678661044 -0.25
      vertex -0.01451423386272312 -0.04784701678661044 0.25
    endloop
  endfacet
  facet normal -0.33688985339222005 -0.9415440651830209 0.0
    outer loop
      vertex -0.01913417161825452 -0.04619397662556433 -0.25
      vertex -0.01451423386272312 -0.04784701678661044 0.25
      vertex -0.01913417161825452 -0.04619397662556433 0.25
    endloop
  endfacet
  facet normal -0.24298017990326395 -0.970031253194544 0.0
    outer loop
      vertex -0.01451423386272312 -0.04784701678661044 -0.25
      vertex -0.009754516100806434 -0.04903926402016152 -0.25
      vertex -0.009754516100806434 -0.04903926402016152 0.25
    endloop
  endfacet
  facet normal -0.24298017990326395 -0.970031253194544 0.0
    outer loop
      vertex -0.01451423386272312 -0.04784701678661044 -0.25
      vertex -0.009754516100806434 -0.04903926402016152 0.25
      vertex -0.01451423386272312 -0.04784701678661044 0.25
    endloop
  endfacet
  facet normal -0.1467304744553624 -0.989176509964781 0.0
    outer loop
      vertex -0.009754516100806434 -0.04903926402016152 -0.25
      vertex -0.004900857016478023 -0.049759236333609846 -0.25
      vertex -0.004900857016478023 -0.049759236333609846 0.25
    endloop
  endfacet
  facet normal -0.1467304744553624 -0.989176509964781 0.0
    outer loop
      vertex -0.009754516100806434 -0.04903926402016152 -0.25
      vertex -0.004900857016478023 -0.049759236333609846 0.25
      vertex -0.009754516100806434 -0.04903926402016152 0.25
    endloop
  endfacet
  facet normal -0.04906767432741831 -0.9987954562051724 0.0
    outer loop
      vertex -0.004900857016478023 -0.049759236333609846 -0.25
      vertex -9.184850993605149e-18 -0.05 -0.25
      vertex -9.184850993605149e-18 -0.05 0.25
    endloop
  endfacet
  facet normal -0.04906767432741831 -0.9987954562051724 0.0
    outer loop
      vertex -0.004900857016478023 -0.049759236333609846 -0.25
      vertex -9.184850993605149e-18 -0.05 0.25
      vertex -0.004900857016478023 -0.049759236333609846 0.25
    endloop
  endfacet
  facet normal 0.049067674327418306 -0.9987954562051724 0.0
    outer loop
      vertex -9.184850993605149e-18 -0.05 -0.25
      vertex 0.0049008570164780045 -0.049759236333609846 -0.25
      vertex 0.0049008570164780045 -0.049759236333609846 0.25
    endloop
  endfacet
  facet normal 0.049067674327418306 -0.9987954562051724 0.0
    outer loop
      vertex -9.184850993605149e-18 -0.05 -0.25
      vertex 0.0049008570164780045 -0.049759236333609846 0.25
      vertex -9.184850993605149e-18 -0.05 0.25
    endloop
  endfacet
  facet normal 0.14673047445536103 -0.9891765099647811 0.0
    outer loop
      vertex 0.0049008570164780045 -0.049759236333609846 -0.25
      vertex 0.009754516100806415 -0.049039264020161524 -0.25
      vertex 0.009754516100806415 -0.049039264020161524 0.25
    endloop
  endfacet
  facet normal 0.14673047445536103 -0.9891765099647811 0.0
    outer loop
      vertex 0.0049008570164780045 -0.049759236333609846 -0.25
      vertex 0.009754516100806415 -0.049039264020161524 0.25
      vertex 0.0049008570164780045 -0.049759236333609846 0.25
    endloop
  endfacet
  facet normal 0.2429801799032637 -0.9700312531945441 0.0
    outer loop
      vertex 0.009754516100806415 -0.049039264020161524 -0.25
      vertex 0.014514233862723106 -0.04784701678661045 -0.25
      vertex 0.014514233862723106 -0.04784701678661045 0.25
    endloop
  endfacet
  facet normal 0.2429801799032637 -0.9700312531945441 0.0
    outer loop
      vertex 0.009754516100806415 -0.049039264020161524 -0.25
      vertex 0.014514233862723106 -0.04784701678661045 0.25
      vertex 0.009754516100806415 -0.049039264020161524 0.25
    endloop
  endfacet
  facet normal 0.3368898533922202 -0.9415440651830207 0.0
    outer loop
      vertex 0.014514233862723106 -0.04784701678661045 -0.25
      vertex 0.0191341716182545 -0.046193976625564334 -0.25
      vertex 0.0191341716182545 -0.046193976625564334 0.25
    endloop
  endfacet
  facet normal 0.3368898533922202 -0.9415440651830207 0.0
    outer loop
      vertex 0.014514233862723106 -0.04784701678661045 -0.25
      vertex 0.0191341716182545 -0.046193976625564334 0.25
      vertex 0.014514233862723106 -0.04784701678661045 0.25
    endloop
  endfacet
  facet normal 0.427555093430282 -0.9039892931234433 0.0
    outer loop
      vertex 0.0191341716182545 -0.046193976625564334 -0.25
      vertex 0.02356983684129988 -0.044096063217417755 -0.25
      vertex 0.02356983684129988 -0.044096063217417755 0.25
    endloop
  endfacet
  facet normal 0.427555093430282 -0.9039892931234433 0.0
    outer loop
      vertex 0.0191341716182545 -0.046193976625564334 -0.25
      vertex 0.02356983684129988 -0.044096063217417755 0.25
      vertex 0.0191341716182545 -0.046193976625564334 0.25
    endloop
  endfacet
  facet normal 0.5141027441932211 -0.8577286100002723 0.0
    outer loop
      vertex 0.02356983684129988 -0.044096063217417755 -0.25
      vertex 0.027778511650980095 -0.04157348061512728 -0.25
      vertex 0.027778511650980095 -0.04157348061512728 0.25
    endloop
  endfacet
  facet normal 0.5141027441932211 -0.8577286100002723 0.0
    outer loop
      vertex 0.02356983684129988 -0.044096063217417755 -0.25
      vertex 0.027778511650980095 -0.04157348061512728 0.25
      vertex 0.02356983684129988 -0.044096063217417755 0.25
    endloop
  endfacet
  facet normal 0.5956993044924341 -0.8032075314806444 0.0
    outer loop
      vertex 0.027778511650980095 -0.04157348061512728 -0.25
      vertex 0.03171966420818228 -0.038650522668136844 -0.25
      vertex 0.03171966420818228 -0.038650522668136844 0.25
    endloop
  endfacet
  facet normal 0.5956993044924341 -0.8032075314806444 0.0
    outer loop
      vertex 0.027778511650980095 -0.04157348061512728 -0.25
      vertex 0.03171966420818228 -0.038650522668136844 0.25
      vertex 0.027778511650980095 -0.04157348061512728 0.25
    endloop
  endfacet
  facet normal 0.6715589548470177 -0.7409511253549598 0.0
    outer loop
      vertex 0.03171966420818228 -0.038650522668136844 -0.25
      vertex 0.035355339059327376 -0.03535533905932738 -0.25
      vertex 0.035355339059327376 -0.03535533905932738 0.25
    endloop
  endfacet
  facet normal 0.6715589548470177 -0.7409511253549598 0.0
    outer loop
      vertex 0.03171966420818228 -0.038650522668136844 -0.25
      vertex 0.035355339059327376 -0.03535533905932738 0.25
      vertex 0.03171966420818228 -0.038650522668136844 0.25
    endloop
  endfacet
  facet normal 0.7409511253549586 -0.6715589548470191 0.0
    outer loop
      vertex 0.035355339059327376 -0.03535533905932738 -0.25
      vertex 0.03865052266813684 -0.0317196642081823 -0.25
      vertex 0.03865052266813684 -0.0317196642081823 0.25
    endloop
  endfacet
  facet normal 0.7409511253549586 -0.6715589548470191 0.0
    outer loop
      vertex 0.035355339059327376 -0.03535533905932738 -0.25
      vertex 0.03865052266813684 -0.0317196642081823 0.25
      vertex 0.035355339059327376 -0.03535533905932738 0.25
    endloop
  endfacet
  facet normal 0.8032075314806456 -0.5956993044924326 0.0
    outer loop
      vertex 0.03865052266813684 -0.0317196642081823 -0.25
      vertex 0.041573480615127265 -0.02777851165098011 -0.25
      vertex 0.041573480615127265 -0.02777851165098011 0.25
    endloop
  endfacet
  facet normal 0.8032075314806456 -0.5956993044924326 0.0
    outer loop
      vertex 0.03865052266813684 -0.0317196642081823 -0.25
      vertex 0.041573480615127265 -0.02777851165098011 0.25
      vertex 0.03865052266813684 -0.0317196642081823 0.25
    endloop
  endfacet
  facet normal 0.8577286100002717 -0.5141027441932224 0.0
    outer loop
      vertex 0.041573480615127265 -0.02777851165098011 -0.25
      vertex 0.04409606321741775 -0.023569836841299898 -0.25
      vertex 0.04409606321741775 -0.023569836841299898 0.25
    endloop
  endfacet
  facet normal 0.8577286100002717 -0.5141027441932224 0.0
    outer loop
      vertex 0.041573480615127265 -0.02777851165098011 -0.25
      vertex 0.04409606321741775 -0.023569836841299898 0.25
      vertex 0.041573480615127265 -0.02777851165098011 0.25
    endloop
  endfacet
  facet normal 0.9039892931234432 -0.4275550934302823 0.0
    outer loop
      vertex 0.04409606321741775 -0.023569836841299898 -0.25
      vertex 0.04619397662556433 -0.019134171618254522 -0.25
      vertex 0.04619397662556433 -0.019134171618254522 0.25
    endloop
  endfacet
  facet normal 0.9039892931234432 -0.4275550934302823 0.0
    outer loop
      vertex 0.04409606321741775 -0.023569836841299898 -0.25
      vertex 0.04619397662556433 -0.019134171618254522 0.25
      vertex 0.04409606321741775 -0.023569836841299898 0.25
    endloop
  endfacet
  facet normal 0.9415440651830209 -0.33688985339222005 0.0
    outer loop
      vertex 0.04619397662556433 -0.019134171618254522 -0.25
      vertex 0.04784701678661044 -0.014514233862723123 -0.25
      vertex 0.04784701678661044 -0.014514233862723123 0.25
    endloop
  endfacet
  facet normal 0.9415440651830209 -0.33688985339222005 0.0
    outer loop
      vertex 0.04619397662556433 -0.019134171618254522 -0.25
      vertex 0.04784701678661044 -0.014514233862723123 0.25
      vertex 0.04619397662556433 -0.019134171618254522 0.25
    endloop
  endfacet
  facet normal 0.970031253194544 -0.24298017990326395 0.0
    outer loop
      vertex 0.04784701678661044 -0.014514233862723123 -0.25
      vertex 0.04903926402016152 -0.009754516100806437 -0.25
      vertex 0.04903926402016152 -0.009754516100806437 0.25
    endloop
  endfacet
  facet normal 0.970031253194544 -0.24298017990326395 0.0
    outer loop
      vertex 0.04784701678661044 -0.014514233862723123 -0.25
      vertex 0.04903926402016152 -0.009754516100806437 0.25
      vertex 0.04784701678661044 -0.014514233862723123 0.25
    endloop
  endfacet
  facet normal 0.989176509964781 -0.1467304744553624 0.0
    outer loop
      vertex 0.04903926402016152 -0.009754516100806437 -0.25
      vertex 0.049759236333609846 -0.004900857016478026 -0.25
      vertex 0.049759236333609846 -0.004900857016478026 0.25
    endloop
  endfacet
  facet normal 0.989176509964781 -0.1467304744553624 0.0
    outer loop
      vertex 0.04903926402016152 -0.009754516100806437 -0.25
      vertex 0.049759236333609846 -0.004900857016478026 0.25
      vertex 0.04903926402016152 -0.009754516100806437 0.25
    endloop
  endfacet
  facet normal 0.9987954562051724 -0.049067674327418306 0.0
    outer loop
      vertex 0.049759236333609846 -0.004900857016478026 -0.25
      vertex 0.05 -1.2246467991473533e-17 -0.25
      vertex 0.05 -1.2246467991473533e-17 0.25
    endloop
  endfacet
  facet normal 0.9987954562051724 -0.049067674327418306 0.0
    outer loop
      vertex 0.049759236333609846 -0.004900857016478026 -0.25
      vertex 0.05 -1.2246467991473533e-17 0.25
      vertex 0.049759236333609846 -0.004900857016478026 0.25
    endloop
  endfacet
  facet normal 0 0 -1
    outer loop
      vertex 0 0 -0.25
      vertex 0.049759236333609846 0.0049008570164780305 -0.25
      vertex 0.05 0.0 -0.25
    endloop
  endfacet
  facet normal 0 0 -1
    outer loop
      vertex 0 0 -0.25
      vertex 0.049039264020161524 0.009754516100806413 -0.25
      vertex 0.049759236333609846 0.0049008570164780305 -0.25
    endloop
  endfacet
  facet normal 0 0 -1
    outer loop
      vertex 0 0 -0.25
      vertex 0.04784701678661044 0.014514233862723117 -0.25
      vertex 0.049039264020161524 0.009754516100806413 -0.25
    endloop
  endfacet
  facet normal 0 0 -1
    outer loop
      vertex 0 0 -0.25
      vertex 0.04619397662556434 0.01913417161825449 -0.25
      vertex 0.04784701678661044 0.014514233862723117 -0.25
    endloop
  endfacet
  facet normal 0 0 -1
    outer loop
      vertex 0 0 -0.25
      vertex 0.044096063217417755 0.023569836841299884 -0.25
      vertex 0.04619397662556434 0.01913417161825449 -0.25
    endloop
  endfacet
  facet normal 0 0 -1
    outer loop
      vertex 0 0 -0.25
      vertex 0.041573480615127265 0.02777851165098011 -0.25
      vertex 0.044096063217417755 0.023569836841299884 -0.25
    endloop
  endfacet
  facet normal 0 0 -1
    outer loop
      vertex 0 0 -0.25
      vertex 0.03865052266813685 0.03171966420818228 -0.25
      vertex 0.041573480615127265 0.02777851165098011 -0.25
    endloop
  endfacet
  facet normal 0 0 -1
    outer loop
      vertex 0 0 -0.25
      vertex 0.03535533905932738 0.035355339059327376 -0.25
      vertex 0.03865052266813685 0.03171966420818228 -0.25
    endloop
  endfacet
  facet normal 0 0 -1
    outer loop
      vertex 0 0 -0.25
      vertex 0.03171966420818228 0.038650522668136844 -0.25
      vertex 0.03535533905932738 0.035355339059327376 -0.25
    endloop
  endfacet
  facet normal 0 0 -1
    outer loop
      vertex 0 0 -0.25
      vertex 0.027778511650980116 0.04157348061512726 -0.25
      vertex 0.03171966420818228 0.038650522668136844 -0.25
    endloop
  endfacet
  facet normal 0 0 -1
    outer loop
      vertex 0 0 -0.25
      vertex 0.02356983684129989 0.04409606321741775 -0.25
      vertex 0.027778511650980116 0.04157348061512726 -0.25
    endloop
  endfacet
  facet normal 0 0 -1
    outer loop
      vertex 0 0 -0.25
      vertex 0.019134171618254495 0.04619397662556434 -0.25
      vertex 0.02356983684129989 0.04409606321741775 -0.25
    endloop
  endfacet
  facet normal 0 0 -1
    outer loop
      vertex 0 0 -0.25
      vertex 0.014514233862723115 0.04784701678661045 -0.25
      vertex 0.019134171618254495 0.04619397662556434 -0.25
    endloop
  endfacet
  facet normal 0 0 -1
    outer loop
      vertex 0 0 -0.25
      vertex 0.009754516100806417 0.049039264020161524 -0.25
      vertex 0.014514233862723115 0.04784701678661045 -0.25
    endloop
  endfacet
  facet normal 0 0 -1
    outer loop
      vertex 0 0 -0.25
      vertex 0.004900857016478039 0.049759236333609846 -0.25
      vertex 0.009754516100806417 0.049039264020161524 -0.25
    endloop
  endfacet
  facet normal 0 0 -1
    outer loop
      vertex 0 0 -0.25
      vertex 3.061616997868383e-18 0.05 -0.25
      vertex 0.004900857016478039 0.049759236333609846 -0.25
    endloop
  endfacet
  facet normal 0 0 -1
    outer loop
      vertex 0 0 -0.25
      vertex -0.004900857016478033 0.049759236333609846 -0.25
      vertex 3.061616997868383e-18 0.05 -0.25
    endloop
  endfacet
  facet normal 0 0 -1
    outer loop
      vertex 0 0 -0.25
      vertex -0.00975451610080641 0.049039264020161524 -0.25
      vertex -0.004900857016478033 0.049759236333609846 -0.25
    endloop
  endfacet
  facet normal 0 0 -1
    outer loop
      vertex 0 0 -0.25
      vertex -0.014514233862723111 0.04784701678661045 -0.25
      vertex -0.00975451610080641 0.049039264020161524 -0.25
    endloop
  endfacet
  facet normal 0 0 -1
    outer loop
      vertex 0 0 -0.25
      vertex -0.019134171618254488 0.04619397662556434 -0.25
      vertex -0.014514233862723111 0.04784701678661045 -0.25
    endloop
  endfacet
  facet normal 0 0 -1
    outer loop
      vertex 0 0 -0.25
      vertex -0.023569836841299888 0.044096063217417755 -0.25
      vertex -0.019134171618254488 0.04619397662556434 -0.25
    endloop
  endfacet
  facet normal 0 0 -1
    outer loop
      vertex 0 0 -0.25
      vertex -0.0277785116509801 0.04157348061512728 -0.25
      vertex -0.023569836841299888 0.044096063217417755 -0.25
    endloop
  endfacet
  facet normal 0 0 -1
    outer loop
      vertex 0 0 -0.25
      vertex -0.031719664208182265 0.03865052266813686 -0.25
      vertex -0.0277785116509801 0.04157348061512728 -0.25
    endloop
  endfacet
  facet normal 0 0 -1
    outer loop
      vertex 0 0 -0.25
      vertex -0.035355339059327376 0.03535533905932738 -0.25
      vertex -0.031719664208182265 0.03865052266813686 -0.25
    endloop
  endfacet
  facet normal 0 0 -1
    outer loop
      vertex 0 0 -0.25
      vertex -0.03865052266813685 0.03171966420818228 -0.25
      vertex -0.035355339059327376 0.03535533905932738 -0.25
    endloop
  endfacet
  facet normal 0 0 -1
    outer loop
      vertex 0 0 -0.25
      vertex -0.04157348061512727 0.02777851165098011 -0.25
      vertex -0.03865052266813685 0.03171966420818228 -0.25
    endloop
  endfacet
  facet normal 0 0 -1
    outer loop
      vertex 0 0 -0.25
      vertex -0.04409606321741775 0.02356983684129989 -0.25
      vertex -0.04157348061512727 0.02777851165098011 -0.25
    endloop
  endfacet
  facet normal 0 0 -1
    outer loop
      vertex 0 0 -0.25
      vertex -0.04619397662556434 0.019134171618254495 -0.25
      vertex -0.04409606321741775 0.02356983684129989 -0.25
    endloop
  endfacet
  facet normal 0 0 -1
    outer loop
      vertex 0 0 -0.25
      vertex -0.04784701678661044 0.014514233862723117 -0.25
      vertex -0.04619397662556434 0.019134171618254495 -0.25
    endloop
  endfacet
  facet normal 0 0 -1
    outer loop
      vertex 0 0 -0.25
      vertex -0.049039264020161524 0.00975451610080643 -0.25
      vertex -0.04784701678661044 0.014514233862723117 -0.25
    endloop
  endfacet
  facet normal 0 0 -1
    outer loop
      vertex 0 0 -0.25
      vertex -0.049759236333609846 0.004900857016478043 -0.25
      vertex -0.049039264020161524 0.00975451610080643 -0.25
    endloop
  endfacet
  facet normal 0 0 -1
    outer loop
      vertex 0 0 -0.25
      vertex -0.05 6.123233995736766e-18 -0.25
      vertex -0.049759236333609846 0.004900857016478043 -0.25
    endloop
  endfacet
  facet normal 0 0 -1
    outer loop
      vertex 0 0 -0.25
      vertex -0.049759236333609846 -0.00490085701647803 -0.25
      vertex -0.05 6.123233995736766e-18 -0.25
    endloop
  endfacet
  facet normal 0 0 -1
    outer loop
      vertex 0 0 -0.25
      vertex -0.049039264020161524 -0.009754516100806418 -0.25
      vertex -0.049759236333609846 -0.00490085701647803 -0.25
    endloop
  endfacet
  facet normal 0 0 -1
    outer loop
      vertex 0 0 -0.25
      vertex -0.04784701678661045 -0.01451423386272311 -0.25
      vertex -0.049039264020161524 -0.009754516100806418 -0.25
    endloop
  endfacet
  facet normal 0 0 -1
    outer loop
      vertex 0 0 -0.25
      vertex -0.04619397662556434 -0.019134171618254484 -0.25
      vertex -0.04784701678661045 -0.01451423386272311 -0.25
    endloop
  endfacet
  facet normal 0 0 -1
    outer loop
      vertex 0 0 -0.25
      vertex -0.044096063217417755 -0.023569836841299884 -0.25
      vertex -0.04619397662556434 -0.019134171618254484 -0.25
    endloop
  endfacet
  facet normal 0 0 -1
    outer loop
      vertex 0 0 -0.25
      vertex -0.04157348061512728 -0.0277785116509801 -0.25
      vertex -0.044096063217417755 -0.023569836841299884 -0.25
    endloop
  endfacet
  facet normal 0 0 -1
    outer loop
      vertex 0 0 -0.25
      vertex -0.03865052266813686 -0.031719664208182265 -0.25
      vertex -0.04157348061512728 -0.0277785116509801 -0.25
    endloop
  endfacet
  facet normal 0 0 -1
    outer loop
      vertex 0 0 -0.25
      vertex -0.03535533905932738 -0.035355339059327376 -0.25
      vertex -0.03865052266813686 -0.031719664208182265 -0.25
    endloop
  endfacet
  facet normal 0 0 -1
    outer loop
      vertex 0 0 -0.25
      vertex -0.0317196642081823 -0.03865052266813684 -0.25
      vertex -0.03535533905932738 -0.035355339059327376 -0.25
    endloop
  endfacet
  facet normal 0 0 -1
    outer loop
      vertex 0 0 -0.25
      vertex -0.02777851165098011 -0.041573480615127265 -0.25
      vertex -0.0317196642081823 -0.03865052266813684 -0.25
    endloop
  endfacet
  facet normal 0 0 -1
    outer loop
      vertex 0 0 -0.25
      vertex -0.023569836841299895 -0.04409606321741775 -0.25
      vertex -0.02777851165098011 -0.041573480615127265 -0.25
    endloop
  endfacet
  facet normal 0 0 -1
    outer loop
      vertex 0 0 -0.25
      vertex -0.01913417161825452 -0.04619397662556433 -0.25
      vertex -0.023569836841299895 -0.04409606321741775 -0.25
    endloop
  endfacet
  facet normal 0 0 -1
    outer loop
      vertex 0 0 -0.25
      vertex -0.01451423386272312 -0.04784701678661044 -0.25
      vertex -0.01913417161825452 -0.04619397662556433 -0.25
    endloop
  endfacet
  facet normal 0 0 -1
    outer loop
      vertex 0 0 -0.25
      vertex -0.009754516100806434 -0.04903926402016152 -0.25
      vertex -0.01451423386272312 -0.04784701678661044 -0.25
    endloop
  endfacet
  facet normal 0 0 -1
    outer loop
      vertex 0 0 -0.25
      vertex -0.004900857016478023 -0.049759236333609846 -0.25
      vertex -0.009754516100806434 -0.04903926402016152 -0.25
    endloop
  endfacet
  facet normal 0 0 -1
    outer loop
      vertex 0 0 -0.25
      vertex -9.184850993605149e-18 -0.05 -0.25
      vertex -0.004900857016478023 -0.049759236333609846 -0.25
    endloop
  endfacet
  facet normal 0 0 -1
    outer loop
      vertex 0 0 -0.25
      vertex 0.0049008570164780045 -0.049759236333609846 -0.25
      vertex -9.184850993605149e-18 -0.05 -0.25
    endloop
  endfacet
  facet normal 0 0 -1
    outer loop
      vertex 0 0 -0.25
      vertex 0.009754516100806415 -0.049039264020161524 -0.25
      vertex 0.0049008570164780045 -0.049759236333609846 -0.25
    endloop
  endfacet
  facet normal 0 0 -1
    outer loop
      vertex 0 0 -0.25
      vertex 0.014514233862723106 -0.04784701678661045 -0.25
      vertex 0.009754516100806415 -0.049039264020161524 -0.25
    endloop
  endfacet
  facet normal 0 0 -1
    outer loop
      vertex 0 0 -0.25
      vertex 0.0191341716182545 -0.046193976625564334 -0.25
      vertex 0.014514233862723106 -0.04784701678661045 -0.25
    endloop
  endfacet
  facet normal 0 0 -1
    outer loop
      vertex 0 0 -0.25
      vertex 0.02356983684129988 -0.044096063217417755 -0.25
      vertex 0.0191341716182545 -0.046193976625564334 -0.25
    endloop
  endfacet
  facet normal 0 0 -1
    outer loop
      vertex 0 0 -0.25
      vertex 0.027778511650980095 -0.04157348061512728 -0.25
      vertex 0.02356983684129988 -0.044096063217417755 -0.25
    endloop
  endfacet
  facet normal 0 0 -1
    outer loop
      vertex 0 0 -0.25
      vertex 0.03171966420818228 -0.038650522668136844 -0.25
      vertex 0.027778511650980095 -0.04157348061512728 -0.25
    endloop
  endfacet
  facet normal 0 0 -1
    outer loop
      vertex 0 0 -0.25
      vertex 0.035355339059327376 -0.03535533905932738 -0.25
      vertex 0.03171966420818228 -0.038650522668136844 -0.25
    endloop
  endfacet
  facet normal 0 0 -1
    outer loop
      vertex 0 0 -0.25
      vertex 0.03865052266813684 -0.0317196642081823 -0.25
      vertex 0.035355339059327376 -0.03535533905932738 -0.25
    endloop
  endfacet
  facet normal 0 0 -1
    outer loop
      vertex 0 0 -0.25
      vertex 0.041573480615127265 -0.02777851165098011 -0.25
      vertex 0.03865052266813684 -0.0317196642081823 -0.25
    endloop
  endfacet
  facet normal 0 0 -1
    outer loop
      vertex 0 0 -0.25
      vertex 0.04409606321741775 -0.023569836841299898 -0.25
      vertex 0.041573480615127265 -0.02777851165098011 -0.25
    endloop
  endfacet
  facet normal 0 0 -1
    outer loop
      vertex 0 0 -0.25
      vertex 0.04619397662556433 -0.019134171618254522 -0.25
      vertex 0.04409606321741775 -0.023569836841299898 -0.25
    endloop
  endfacet
  facet normal 0 0 -1
    outer loop
      vertex 0 0 -0.25
      vertex 0.04784701678661044 -0.014514233862723123 -0.25
      vertex 0.04619397662556433 -0.019134171618254522 -0.25
    endloop
  endfacet
  facet normal 0 0 -1
    outer loop
      vertex 0 0 -0.25
      vertex 0.04903926402016152 -0.009754516100806437 -0.25
      vertex 0.04784701678661044 -0.014514233862723123 -0.25
    endloop
  endfacet
  facet normal 0 0 -1
    outer loop
      vertex 0 0 -0.25
      vertex 0.049759236333609846 -0.004900857016478026 -0.25
      vertex 0.04903926402016152 -0.009754516100806437 -0.25
    endloop
  endfacet
  facet normal 0 0 -1
    outer loop
      vertex 0 0 -0.25
      vertex 0.05 -1.2246467991473533e-17 -0.25
      vertex 0.049759236333609846 -0.004900857016478026 -0.25
    endloop
  endfacet
  facet normal 0 0 1
    outer loop
      vertex 0 0 0.25
      vertex 0.05 0.0 0.25
      vertex 0.049759236333609846 0.0049008570164780305 0.25
    endloop
  endfacet
  facet normal 0 0 1
    outer loop
      vertex 0 0 0.25
      vertex 0.049759236333609846 0.0049008570164780305 0.25
      vertex 0.049039264020161524 0.009754516100806413 0.25
    endloop
  endfacet
  facet normal 0 0 1
    outer loop
      vertex 0 0 0.25
      vertex 0.049039264020161524 0.009754516100806413 0.25
      vertex 0.04784701678661044 0.014514233862723117 0.25
    endloop
  endfacet
  facet normal 0 0 1
    outer loop
      vertex 0 0 0.25
      vertex 0.04784701678661044 0.014514233862723117 0.25
      vertex 0.04619397662556434 0.01913417161825449 0.25
    endloop
  endfacet
  facet normal 0 0 1
    outer loop
      vertex 0 0 0.25
      vertex 0.04619397662556434 0.01913417161825449 0.25
      vertex 0.044096063217417755 0.023569836841299884 0.25
    endloop
  endfacet
  facet normal 0 0 1
    outer loop
      vertex 0 0 0.25
      vertex 0.044096063217417755 0.023569836841299884 0.25
      vertex 0.041573480615127265 0.02777851165098011 0.25
    endloop
  endfacet
  facet normal 0 0 1
    outer loop
      vertex 0 0 0.25
      vertex 0.041573480615127265 0.02777851165098011 0.25
      vertex 0.03865052266813685 0.03171966420818228 0.25
    endloop
  endfacet
  facet normal 0 0 1
    outer loop
      vertex 0 0 0.25
      vertex 0.03865052266813685 0.03171966420818228 0.25
      vertex 0.03535533905932738 0.035355339059327376 0.25
    endloop
  endfacet
  facet normal 0 0 1
    outer loop
      vertex 0 0 0.25
      vertex 0.03535533905932738 0.035355339059327376 0.25
      vertex 0.03171966420818228 0.038650522668136844 0.25
    endloop
  endfacet
  facet normal 0 0 1
    outer loop
      vertex 0 0 0.25
      vertex 0.03171966420818228 0.038650522668136844 0.25
      vertex 0.027778511650980116 0.04157348061512726 0.25
    endloop
  endfacet
  facet normal 0 0 1
    outer loop
      vertex 0 0 0.25
      vertex 0.027778511650980116 0.04157348061512726 0.25
      vertex 0.02356983684129989 0.04409606321741775 0.25
    endloop
  endfacet
  facet normal 0 0 1
    outer loop
      vertex 0 0 0.25
      vertex 0.02356983684129989 0.04409606321741775 0.25
      vertex 0.019134171618254495 0.04619397662556434 0.25
    endloop
  endfacet
  facet normal 0 0 1
    outer loop
      vertex 0 0 0.25
      vertex 0.019134171618254495 0.04619397662556434 0.25
      vertex 0.014514233862723115 0.04784701678661045 0.25
    endloop
  endfacet
  facet normal 0 0 1
    outer loop
      vertex 0 0 0.25
      vertex 0.014514233862723115 0.04784701678661045 0.25
      vertex 0.009754516100806417 0.049039264020161524 0.25
    endloop
  endfacet
  facet normal 0 0 1
    outer loop
      vertex 0 0 0.25
      vertex 0.009754516100806417 0.049039264020161524 0.25
      vertex 0.004900857016478039 0.049759236333609846 0.25
    endloop
  endfacet
  facet normal 0 0 1
    outer loop
      vertex 0 0 0.25
      vertex 0.004900857016478039 0.049759236333609846 0.25
      vertex 3.061616997868383e-18 0.05 0.25
    endloop
  endfacet
  facet normal 0 0 1
    outer loop
      vertex 0 0 0.25
      vertex 3.061616997868383e-18 0.05 0.25
      vertex -0.004900857016478033 0.049759236333609846 0.25
    endloop
  endfacet
  facet normal 0 0 1
    outer loop
      vertex 0 0 0.25
      vertex -0.004900857016478033 0.049759236333609846 0.25
      vertex -0.00975451610080641 0.049039264020161524 0.25
    endloop
  endfacet
  facet normal 0 0 1
    outer loop
      vertex 0 0 0.25
      vertex -0.00975451610080641 0.049039264020161524 0.25
      vertex -0.014514233862723111 0.04784701678661045 0.25
    endloop
  endfacet
  facet normal 0 0 1
    outer loop
      vertex 0 0 0.25
      vertex -0.014514233862723111 0.04784701678661045 0.25
      vertex -0.019134171618254488 0.04619397662556434 0.25
    endloop
  endfacet
  facet normal 0 0 1
    outer loop
      vertex 0 0 0.25
      vertex -0.019134171618254488 0.04619397662556434 0.25
      vertex -0.023569836841299888 0.044096063217417755 0.25
    endloop
  endfacet
  facet normal 0 0 1
    outer loop
      vertex 0 0 0.25
      vertex -0.023569836841299888 0.044096063217417755 0.25
      vertex -0.0277785116509801 0.04157348061512728 0.25
    endloop
  endfacet
  facet normal 0 0 1
    outer loop
      vertex 0 0 0.25
      vertex -0.0277785116509801 0.04157348061512728 0.25
      vertex -0.031719664208182265 0.03865052266813686 0.25
    endloop
  endfacet
  facet normal 0 0 1
    outer loop
      vertex 0 0 0.25
      vertex -0.031719664208182265 0.03865052266813686 0.25
      vertex -0.035355339059327376 0.03535533905932738 0.25
    endloop
  endfacet
  facet normal 0 0 1
    outer loop
      vertex 0 0 0.25
      vertex -0.035355339059327376 0.03535533905932738 0.25
      vertex -0.03865052266813685 0.03171966420818228 0.25
    endloop
  endfacet
  facet normal 0 0 1
    outer loop
      vertex 0 0 0.25
      vertex -0.03865052266813685 0.03171966420818228 0.25
      vertex -0.04157348061512727 0.02777851165098011 0.25
    endloop
  endfacet
  facet normal 0 0 1
    outer loop
      vertex 0 0 0.25
      vertex -0.04157348061512727 0.02777851165098011 0.25
      vertex -0.04409606321741775 0.02356983684129989 0.25
    endloop
  endfacet
  facet normal 0 0 1
    outer loop
      vertex 0 0 0.25
      vertex -0.04409606321741775 0.02356983684129989 0.25
      vertex -0.04619397662556434 0.019134171618254495 0.25
    endloop
  endfacet
  facet normal 0 0 1
    outer loop
      vertex 0 0 0.25
      vertex -0.04619397662556434 0.019134171618254495 0.25
      vertex -0.04784701678661044 0.014514233862723117 0.25
    endloop
  endfacet
  facet normal 0 0 1
    outer loop
      vertex 0 0 0.25
      vertex -0.04784701678661044 0.014514233862723117 0.25
      vertex -0.049039264020161524 0.00975451610080643 0.25
    endloop
  endfacet
  facet normal 0 0 1
    outer loop
      vertex 0 0 0.25
      vertex -0.049039264020161524 0.00975451610080643 0.25
      vertex -0.049759236333609846 0.004900857016478043 0.25
    endloop
  endfacet
  facet normal 0 0 1
    outer loop
      vertex 0 0 0.25
      vertex -0.049759236333609846 0.004900857016478043 0.25
      vertex -0.05 6.123233995736766e-18 0.25
    endloop
  endfacet
  facet normal 0 0 1
    outer loop
      vertex 0 0 0.25
      vertex -0.05 6.123233995736766e-18 0.25
      vertex -0.049759236333609846 -0.00490085701647803 0.25
    endloop
  endfacet
  facet normal 0 0 1
    outer loop
      vertex 0 0 0.25
      vertex -0.049759236333609846 -0.00490085701647803 0.25
      vertex -0.049039264020161524 -0.009754516100806418 0.25
    endloop
  endfacet
  facet normal 0 0 1
    outer loop
      vertex 0 0 0.25
      vertex -0.049039264020161524 -0.009754516100806418 0.25
      vertex -0.04784701678661045 -0.01451423386272311 0.25
    endloop
  endfacet
  facet normal 0 0 1
    outer loop
      vertex 0 0 0.25
      vertex -0.04784701678661045 -0.01451423386272311 0.25
      vertex -0.04619397662556434 -0.019134171618254484 0.25
    endloop
  endfacet
  facet normal 0 0 1
    outer loop
      vertex 0 0 0.25
      vertex -0.04619397662556434 -0.019134171618254484 0.25
      vertex -0.044096063217417755 -0.023569836841299884 0.25
    endloop
  endfacet
  facet normal 0 0 1
    outer loop
      vertex 0 0 0.25
      vertex -0.044096063217417755 -0.023569836841299884 0.25
      vertex -0.04157348061512728 -0.0277785116509801 0.25
    endloop
  endfacet
  facet normal 0 0 1
    outer loop
      vertex 0 0 0.25
      vertex -0.04157348061512728 -0.0277785116509801 0.25
      vertex -0.03865052266813686 -0.031719664208182265 0.25
    endloop
  endfacet
  facet normal 0 0 1
    outer loop
      vertex 0 0 0.25
      vertex -0.03865052266813686 -0.031719664208182265 0.25
      vertex -0.03535533905932738 -0.035355339059327376 0.25
    endloop
  endfacet
  facet normal 0 0 1
    outer loop
      vertex 0 0 0.25
      vertex -0.03535533905932738 -0.035355339059327376 0.25
      vertex -0.0317196642081823 -0.03865052266813684 0.25
    endloop
  endfacet
  facet normal 0 0 1
    outer loop
      vertex 0 0 0.25
      vertex -0.0317196642081823 -0.03865052266813684 0.25
      vertex -0.02777851165098011 -0.041573480615127265 0.25
    endloop
  endfacet
  facet normal 0 0 1
    outer loop
      vertex 0 0 0.25
      vertex -0.02777851165098011 -0.041573480615127265 0.25
      vertex -0.023569836841299895 -0.04409606321741775 0.25
    endloop
  endfacet
  facet normal 0 0 1
    outer loop
      vertex 0 0 0.25
      vertex -0.023569836841299895 -0.04409606321741775 0.25
      vertex -0.01913417161825452 -0.04619397662556433 0.25
    endloop
  endfacet
  facet normal 0 0 1
    outer loop
      vertex 0 0 0.25
      vertex -0.01913417161825452 -0.04619397662556433 0.25
      vertex -0.01451423386272312 -0.04784701678661044 0.25
    endloop
  endfacet
  facet normal 0 0 1
    outer loop
      vertex 0 0 0.25
      vertex -0.01451423386272312 -0.04784701678661044 0.25
      vertex -0.009754516100806434 -0.04903926402016152 0.25
    endloop
  endfacet
  facet normal 0 0 1
    outer loop
      vertex 0 0 0.25
      vertex -0.009754516100806434 -0.04903926402016152 0.25
      vertex -0.004900857016478023 -0.049759236333609846 0.25
    endloop
  endfacet
  facet normal 0 0 1
    outer loop
      vertex 0 0 0.25
      vertex -0.004900857016478023 -0.049759236333609846 0.25
      vertex -9.184850993605149e-18 -0.05 0.25
    endloop
  endfacet
  facet normal 0 0 1
    outer loop
      vertex 0 0 0.25
      vertex -9.184850993605149e-18 -0.05 0.25
      vertex 0.0049008570164780045 -0.049759236333609846 0.25
    endloop
  endfacet
  facet normal 0 0 1
    outer loop
      vertex 0 0 0.25
      vertex 0.0049008570164780045 -0.049759236333609846 0.25
      vertex 0.009754516100806415 -0.049039264020161524 0.25
    endloop
  endfacet
  facet normal 0 0 1
    outer loop
      vertex 0 0 0.25
      vertex 0.009754516100806415 -0.049039264020161524 0.25
      vertex 0.014514233862723106 -0.04784701678661045 0.25
    endloop
  endfacet
  facet normal 0 0 1
    outer loop
      vertex 0 0 0.25
      vertex 0.014514233862723106 -0.04784701678661045 0.25
      vertex 0.0191341716182545 -0.046193976625564334 0.25
    endloop
  endfacet
  facet normal 0 0 1
    outer loop
      vertex 0 0 0.25
      vertex 0.0191341716182545 -0.046193976625564334 0.25
      vertex 0.02356983684129988 -0.044096063217417755 0.25
    endloop
  endfacet
  facet normal 0 0 1
    outer loop
      vertex 0 0 0.25
      vertex 0.02356983684129988 -0.044096063217417755 0.25
      vertex 0.027778511650980095 -0.04157348061512728 0.25
    endloop
  endfacet
  facet normal 0 0 1
    outer loop
      vertex 0 0 0.25
      vertex 0.027778511650980095 -0.04157348061512728 0.25
      vertex 0.03171966420818228 -0.038650522668136844 0.25
    endloop
  endfacet
  facet normal 0 0 1
    outer loop
      vertex 0 0 0.25
      vertex 0.03171966420818228 -0.038650522668136844 0.25
      vertex 0.035355339059327376 -0.03535533905932738 0.25
    endloop
  endfacet
  facet normal 0 0 1
    outer loop
      vertex 0 0 0.25
      vertex 0.035355339059327376 -0.03535533905932738 0.25
      vertex 0.03865052266813684 -0.0317196642081823 0.25
    endloop
  endfacet
  facet normal 0 0 1
    outer loop
      vertex 0 0 0.25
      vertex 0.03865052266813684 -0.0317196642081823 0.25
      vertex 0.041573480615127265 -0.02777851165098011 0.25
    endloop
  endfacet
  facet normal 0 0 1
    outer loop
      vertex 0 0 0.25
      vertex 0.041573480615127265 -0.02777851165098011 0.25
      vertex 0.04409606321741775 -0.023569836841299898 0.25
    endloop
  endfacet
  facet normal 0 0 1
    outer loop
      vertex 0 0 0.25
      vertex 0.04409606321741775 -0.023569836841299898 0.25
      vertex 0.04619397662556433 -0.019134171618254522 0.25
    endloop
  endfacet
  facet normal 0 0 1
    outer loop
      vertex 0 0 0.25
      vertex 0.04619397662556433 -0.019134171618254522 0.25
      vertex 0.04784701678661044 -0.014514233862723123 0.25
    endloop
  endfacet
  facet normal 0 0 1
    outer loop
      vertex 0 0 0.25
      vertex 0.04784701678661044 -0.014514233862723123 0.25
      vertex 0.04903926402016152 -0.009754516100806437 0.25
    endloop
  endfacet
  facet normal 0 0 1
    outer loop
      vertex 0 0 0.25
      vertex 0.04903926402016152 -0.009754516100806437 0.25
      vertex 0.049759236333609846 -0.004900857016478026 0.25
    endloop
  endfacet
  facet normal 0 0 1
    outer loop
      vertex 0 0 0.25
      vertex 0.049759236333609846 -0.004900857016478026 0.25
      vertex 0.05 -1.2246467991473533e-17 0.25
    endloop
  endfacet
endsolid cylinder
